<svg xmlns="http://www.w3.org/2000/svg" width="1024" height="816"><path fill="#5b604d" d="M0 0h1024v816H0z"/><g transform="matrix(4 0 0 4 2 2)"><ellipse fill="#fff" fill-opacity=".502" rx="1" ry="1" transform="rotate(-51.414 195.093 -13.274) scale(169.4596 28.318)"/><ellipse fill-opacity=".502" cx="9" cy="73" rx="79" ry="79"/><ellipse fill="#fffffb" fill-opacity=".502" rx="1" ry="1" transform="matrix(-7.12798 19.65966 -70.41205 -25.5292 147.388 41.475)"/><ellipse fill="#111200" fill-opacity=".502" rx="1" ry="1" transform="matrix(51.53915 15.63427 -67.9202 223.90236 247.355 81.813)"/><ellipse fill-opacity=".502" rx="1" ry="1" transform="matrix(25.6811 10.50725 -42.63392 104.20285 11.198 133.544)"/><ellipse fill="#ecfbff" fill-opacity=".502" rx="1" ry="1" transform="matrix(-33.25402 32.5036 -13.62724 -13.94186 55.016 162.53)"/><path fill="#eaf7fc" fill-opacity=".502" d="M96.94 100.056l31.18-81.22 28.94 11.108-31.18 81.22z"/><ellipse fill="#262a00" fill-opacity=".502" cx="197" cy="15" rx="51" ry="20"/><ellipse fill="#000800" fill-opacity=".502" cx="73" cy="81" rx="27" ry="27"/><ellipse fill="#807e79" fill-opacity=".502" rx="1" ry="1" transform="matrix(-17.14312 -17.38744 74.0787 -73.03775 85.157 181.89)"/><path fill="#b4c0ca" fill-opacity=".502" d="M230 66l-38-31-127 90"/><ellipse fill="#e8ef84" fill-opacity=".502" rx="1" ry="1" transform="matrix(-5.36146 7.64672 -24.4217 -17.12317 85.735 16.672)"/><ellipse fill="#081000" fill-opacity=".502" rx="1" ry="1" transform="matrix(-41.0854 -8.84804 4.82335 -22.39695 207.654 137.744)"/><ellipse fill="#685f68" fill-opacity=".502" rx="1" ry="1" transform="matrix(24.66733 -3.89362 5.4125 34.28987 187.51 188.21)"/><ellipse fill="#000800" fill-opacity=".502" cy="94" rx="67" ry="67"/><ellipse fill="#8a8635" fill-opacity=".502" rx="1" ry="1" transform="matrix(-54.56013 -9.45885 3.8022 -21.93168 140.918 0)"/><ellipse fill="#d3dde1" fill-opacity=".502" rx="1" ry="1" transform="rotate(-132.036 71.194 41.16) scale(12.91424 82.26317)"/><ellipse fill="#323e00" fill-opacity=".502" rx="1" ry="1" transform="rotate(-84.03 174.193 -91.647) scale(99.1037 25.63872)"/><ellipse fill="#000c00" fill-opacity=".502" rx="1" ry="1" transform="matrix(28.94152 -3.02486 3.65885 35.0075 229.492 6.12)"/><path fill="#4b5a0e" fill-opacity=".502" d="M71 29h38v46H71z"/><ellipse fill-opacity=".502" cx="158" cy="100" rx="8" ry="8"/><path fill-opacity=".502" d="M11 204l-27-39 55-61"/><ellipse fill="#3c4d03" fill-opacity=".502" rx="1" ry="1" transform="matrix(-12.20423 -33.37415 34.51977 -12.62316 22.594 6.902)"/><path fill="#d7dba5" fill-opacity=".502" d="M138 27L52-11l71 72"/><path fill="#322d22" fill-opacity=".502" d="M46.756 207.225l5.815-15.975 20.674 7.525-5.815 15.975z"/><ellipse fill="#9ca396" fill-opacity=".502" cx="128" cy="112" rx="26" ry="23"/><path fill="#50453f" fill-opacity=".502" d="M115 199l-6-56 162 67"/><path fill="#929291" fill-opacity=".502" d="M193.982 64.845l-72.076 10.13 1.303 2.743 71.37 33.792"/><path fill="#edf5ff" fill-opacity=".502" d="M108 85l35-48-30 14"/><path fill="#031800" fill-opacity=".502" d="M33 12l24 121 45-50"/><ellipse fill="#5e5c3a" fill-opacity=".502" rx="1" ry="1" transform="matrix(3.62924 12.16097 -45.45077 13.56403 237.263 65.265)"/><path fill="#e8f0f9" fill-opacity=".502" d="M112 79l-90 93 59-34"/><path fill="#d6e1f2" fill-opacity=".502" d="M35.772 151.945L11.1 199.033l6.912 12.704L30.447 219"/><path fill="#0f0900" fill-opacity=".502" d="M221.45 98.84l-13.91 85.786 48.746-17.115-66.36-53.82"/><path fill="#a1a150" fill-opacity=".502" d="M140.503 45.416L62.317 6.023 59.694 24.65l48.852 15.958"/><ellipse fill="#b1bcc3" fill-opacity=".502" rx="1" ry="1" transform="rotate(-44.71 235.348 -6.394) scale(61.29658 10.5451)"/><path fill="#2e2700" fill-opacity=".502" d="M179.77 31.03l2.958-6.345L226.23 44.97l-2.958 6.345z"/><path fill="#041201" fill-opacity=".502" d="M17 172l91-99L-7 43"/><path fill="#cddbea" fill-opacity=".502" d="M171 30l42 20-109 26"/><path fill="#e6f0fe" fill-opacity=".502" d="M163 30h-57l-5-18"/><path fill="#97a2af" fill-opacity=".502" d="M229.1 78.845l2.02 1.475-17.495-29.42-19.343 6.245"/><ellipse fill="#364900" fill-opacity=".502" rx="1" ry="1" transform="rotate(107.784 84.525 145.398) scale(51.47527 24.49808)"/><path fill="#7e7842" fill-opacity=".502" d="M196.518 31.62l-91.946-19.545 2.91-13.694 91.946 19.545z"/><path fill="#6d7474" fill-opacity=".502" d="M202 157l-21-2 37 57"/><ellipse fill="#141520" fill-opacity=".502" rx="1" ry="1" transform="matrix(-21.42563 16.80724 -12.82737 -16.35215 192.414 135.117)"/><path fill="#5b5f2a" fill-opacity=".502" d="M-2.24 28.39L11.668 5.25l20.572 12.36-13.907 23.144z"/><path fill="#212f00" fill-opacity=".502" d="M143.444 6.127L151.927-16l75.545 24.875-52.604-5.48"/><ellipse fill="#7f7d6d" fill-opacity=".502" rx="1" ry="1" transform="rotate(-145.028 76.44 72.876) scale(8.7054 56.75485)"/><path fill="#4a5129" fill-opacity=".502" d="M109 49L92 83 41-9"/><ellipse fill="#8e6c2e" fill-opacity=".502" cx="255" cy="185" rx="7" ry="14"/><ellipse fill="#000005" fill-opacity=".502" rx="1" ry="1" transform="rotate(52.09 -25.285 211.81) scale(9.60887 4.42957)"/><ellipse fill="#0c1801" fill-opacity=".502" rx="1" ry="1" transform="matrix(18.789 5.39653 -2.8641 9.9719 38.362 0)"/><ellipse fill="#d8e2e9" fill-opacity=".502" rx="1" ry="1" transform="matrix(21.71208 -16.85856 5.7704 7.43166 56.354 146.82)"/><path fill="#0a190a" fill-opacity=".502" d="M83.138 106.885l-20.57 24.513-33.706-28.283 20.57-24.513z"/><path fill="#51483d" fill-opacity=".502" d="M193 113l-18-8 32-41"/><ellipse fill="#091505" fill-opacity=".502" cx="67" cy="88" rx="30" ry="20"/><path fill="#bec7c7" fill-opacity=".502" d="M211 51l-90 12-31 50"/><ellipse fill="#616c4c" fill-opacity=".502" cx="222" cy="202" rx="15" ry="15"/><path fill="#807d51" fill-opacity=".502" d="M87 6l63-3 5 22"/><ellipse fill="#443b39" fill-opacity=".502" rx="1" ry="1" transform="rotate(-77.728 190.38 -3.4) scale(17.05004 19.33818)"/><path fill-opacity=".502" d="M172 121h13v22h-13z"/><path fill="#766d62" fill-opacity=".502" d="M179 91l-36 47 47-28"/><path fill="#233c06" fill-opacity=".502" d="M33.86 1.806l60.962 66.49 17.096-4.362L91.66 98.28"/><ellipse fill="#bfbf64" fill-opacity=".502" rx="1" ry="1" transform="rotate(-147.394 55.623 1.11) scale(24.15605 6.47066)"/><path fill="#4f4c4e" fill-opacity=".502" d="M235.134 91.418l-16.402-28.533 1.042 48.823 12.18-25.866"/><ellipse fill="#010803" fill-opacity=".502" rx="1" ry="1" transform="matrix(20.59562 -24.1277 19.56692 16.7025 0 161.087)"/><ellipse fill="#302a07" fill-opacity=".502" cx="207" cy="32" rx="17" ry="11"/><path fill="#dde7ef" fill-opacity=".502" d="M118 68l24-44 36 9"/><ellipse fill="#595224" fill-opacity=".502" cx="180" cy="28" rx="22" ry="3"/><path fill="#2e353b" fill-opacity=".502" d="M203.6 155.32l3.277-6.257 6.63-27.426-21.346 6.62"/><path fill="#a2aaa2" fill-opacity=".502" d="M81.546 142.34L193.694 66.9 133.657 78.49l-2.267 12.088"/><path fill="#2c2821" fill-opacity=".502" d="M207.778 75.766l-8.2-10.546-.374 30.712 28.018-9.4"/><ellipse fill="#d0dadb" fill-opacity=".502" rx="1" ry="1" transform="matrix(6.93453 4.1236 -18.35767 30.87145 104.49 95.81)"/><path fill="#2c1906" fill-opacity=".502" d="M267 219l-61-54 16-21"/><ellipse fill="#371915" fill-opacity=".502" rx="1" ry="1" transform="matrix(6.8129 3.2344 -4.2788 9.01283 6.61 197.046)"/><path fill="#bec38e" fill-opacity=".502" d="M65.137 19.32l12.258-32.236 44.01 51.072-43.273-20.213"/><path fill="#e3edfa" fill-opacity=".502" d="M24 174l-14 32 40-33"/><path fill="#010404" fill-opacity=".502" d="M224 24l23-40h-63"/><path fill="#4f4d12" fill-opacity=".502" d="M219.07 55.708l26.49-14.085 17.37 32.67-26.49 14.084z"/><path fill="#000204" fill-opacity=".502" d="M198.056 107.83l18.513-4.275 3.374 14.616-18.513 4.275z"/><path fill="#86903f" fill-opacity=".502" d="M185.156 21.327l12.08-7.608-23.012-9.71-4.654 14.276"/><ellipse fill="#6d6a3a" fill-opacity=".502" rx="1" ry="1" transform="matrix(-9.36966 -8.04922 3.57442 -4.1608 103.15 46.512)"/><path fill="#182a01" fill-opacity=".502" d="M53.757 53.594l-26.82 1.073-34.813-12.604 65.457-17.46"/><path fill="#7c807b" fill-opacity=".502" d="M50.195 199.305L42.76 219l7.937-36.65 36.842 15.306"/><path fill="#00000a" fill-opacity=".502" d="M202 162l18-12v-29"/><ellipse fill="#6f6656" fill-opacity=".502" rx="1" ry="1" transform="matrix(11.20524 1.08344 -4.86637 50.32926 107.952 203)"/><path fill="#9ba5aa" fill-opacity=".502" d="M206 72l17-11-11-10"/><path fill="#665a4f" fill-opacity=".502" d="M164 165l10-50-58 51"/><path fill="#bab95f" fill-opacity=".502" d="M112.035 51.643l21.105-15.35-32.523.026-5.782-6.465"/><path fill="#0c1f0c" fill-opacity=".502" d="M80.793 100.085l28.062-27.696-16.427 26.868-103.515 79.28"/><path fill="#827350" fill-opacity=".502" d="M102.3 12.442L74.206-.66 79.7-12.442 107.794.66z"/><ellipse fill="#182002" fill-opacity=".502" rx="1" ry="1" transform="rotate(84.758 39.058 215.432) scale(6.525 48.9418)"/><path fill="#1e330c" fill-opacity=".502" d="M237.74 43.897l18.638-.13 8.64-35.784L244.783-16"/><path fill="#c4bea5" fill-opacity=".502" d="M32.292 172.627L28.2 168.24l9.508-8.867 4.092 4.388z"/><path fill-opacity=".502" d="M153 97h12v8h-12z"/><path fill="#84867f" fill-opacity=".502" d="M148.044 134.664l-50.73 21.038 53.61-55.916 7.168 12.94"/><path fill="#000200" fill-opacity=".502" d="M201.777 148.858l-31.08-32.462 4.796 15.182 17.268 16.3"/><path fill="#8d9391" fill-opacity=".502" d="M153 83h22v11h-22z"/><path fill="#939165" fill-opacity=".502" d="M125 7h19v12h-19z"/><ellipse fill="#314000" fill-opacity=".502" rx="1" ry="1" transform="rotate(75.825 51.04 212.48) scale(45.06614 11.3109)"/><path fill="#d2dee2" fill-opacity=".502" d="M78.545 158.702l-17.14-27.03 11.55-13.047L102.093 88.8"/><path fill="#050e04" fill-opacity=".502" d="M28.57 44.456L-16 50.636V214.57l72.105-85.51"/><path fill="#343213" fill-opacity=".502" d="M262.205 43.832l-47.72 8.51-17.978-11.946 63.122-7.348"/><path fill="#d2dde4" fill-opacity=".502" d="M206.567 50.702l-42.344-20.06-29.977 10.597 58.09-4.462"/><path fill="#646334" fill-opacity=".502" d="M184.8-7.03l-78.814 17.404 19.767 8.155L109.5-16"/><path fill="#3c3935" fill-opacity=".502" d="M169 219l30-49v43"/><path fill="#696b47" fill-opacity=".502" d="M54.38 15.702l15.116 17.753 21.218.48-27.5-26.022"/><path fill="#b5bdb9" fill-opacity=".502" d="M69.107 187.342l21.37-20.847-25.52 2.982 84.85-110.944"/><ellipse fill="#dbe6ee" fill-opacity=".502" rx="1" ry="1" transform="matrix(-16.58606 -4.70412 1.26944 -4.47588 124.914 22.972)"/><path fill="#d9e2e9" fill-opacity=".502" d="M103.973 96.264l11.395-46.296 75.68-10.594-83.79 34.44"/><path fill="#4d483d" fill-opacity=".502" d="M89 210l-36-17-3 23"/><path fill="#3e531a" fill-opacity=".502" d="M90.947 67.237l9.184 19.92 12.18-29.066 1.272-6.49"/><path fill="#53493d" fill-opacity=".502" d="M167 146l-5 31 30-19"/><ellipse fill="#696b6a" fill-opacity=".502" rx="1" ry="1" transform="rotate(-54.166 262.657 -98.774) scale(19.22102 3.57)"/><path fill="#aeb8c2" fill-opacity=".502" d="M21.472 219l48.465-52.337-35.613 23.886-2.77-5.154"/><path fill="#4b5809" fill-opacity=".502" d="M199.472 24.552L177.296-10.19 187.68-16l19.65 35.45"/><path fill="#cfd9a3" fill-opacity=".502" d="M93.627 24.077L61.28-16 80.573 5.002l28.296 9.113"/><path fill="#707b81" fill-opacity=".502" d="M192.07 70.65l-.974-6.933 16.834-2.366.974 6.933z"/><path fill="#737063" fill-opacity=".502" d="M175.693 103.48l-29.165 58.115-6.412-41.924 42.025-1.373"/><path fill="#ccd8e4" fill-opacity=".502" d="M201.893 60.248l-39.748-30.71 35.83 11.4-30.218 22.066"/><path fill="#9fa596" fill-opacity=".502" d="M154 111l-35 8 9-25"/><path fill="#2c2d0e" fill-opacity=".502" d="M210.144 47.885L271 34.57l-83.243.422-5.653-2.496"/><path fill="#e1e9f1" fill-opacity=".502" d="M36.823 153.883l11.827 35.302-18.697-9.918 70.554-80.158"/><path fill="#251106" fill-opacity=".502" d="M206.414 176.687l1.36-12.928 33.812 3.553-1.36 12.928z"/><path fill="#4f3b26" fill-opacity=".502" d="M256 165l-11 2v27"/><path fill="#86857d" fill-opacity=".502" d="M170 107l17-27-19 5"/><path fill="#6b6234" fill-opacity=".502" d="M137-4l21 31 37 7"/><ellipse fill="#89897e" fill-opacity=".502" rx="1" ry="1" transform="matrix(-13.4981 13.58883 -6.47264 -6.42942 83.386 188.643)"/><ellipse fill="#51532d" fill-opacity=".502" rx="1" ry="1" transform="rotate(-152.697 43.304 7.6) scale(30.12424 6.79915)"/><path fill="#37420d" fill-opacity=".502" d="M-16 39.945l40.406-.218 6.3-27.46 19.886 9.888"/><ellipse fill="#bbc0be" fill-opacity=".502" rx="1" ry="1" transform="matrix(1.5006 -3.6453 15.56112 6.40584 123.3 32.718)"/><ellipse fill="#384900" fill-opacity=".502" rx="1" ry="1" transform="rotate(152.588 101.228 99.41) scale(18.06392 10.40533)"/><path fill="#757880" fill-opacity=".502" d="M209 182l7 37-9-11"/><path fill="#434129" fill-opacity=".502" d="M219 184l17 1 21 34"/><path fill="#e0e8ea" fill-opacity=".502" d="M153.753 38.206L97.69 11.83l57.923 15.783-38.817 25.218"/><path fill="#b4c1cb" fill-opacity=".502" d="M190 78l-6-4 8-6"/><path fill="#0c1a09" fill-opacity=".502" d="M83.396 73.9l11.54 24.706-27.338 14.87-43.69 5.864"/><path fill="#dae4e8" fill-opacity=".502" d="M124.795 47.742l.857.515-32.447 54-.857-.514z"/><ellipse fill="#554f43" fill-opacity=".502" cx="165" cy="111" rx="7" ry="6"/><path fill="#c0c8cc" fill-opacity=".502" d="M110.266 67.104l94.117-22.5-62.768 30.27-31.602-4.26"/><path fill="#394d21" fill-opacity=".502" d="M111.137 69.015l-10.74 17.333 8.497-18.817-81.56-39.02"/><path fill="#899192" fill-opacity=".502" d="M215.726 53.585l-13.332 7.743-12.49-1.877 38.308 11.832"/><path fill="#333027" fill-opacity=".502" d="M200.19 94.06l-3.293-10.824 26 16.81-4.555-34.15"/><path fill="#5c612f" fill-opacity=".502" d="M6.9 24.557L10.81 13.21l12.29 4.233-3.906 11.346z"/><path fill="#b6bd82" fill-opacity=".502" d="M95.07 21.527l-17.486-8.025-1 10.692L52.78-9.066"/><ellipse fill="#848445" fill-opacity=".502" rx="1" ry="1" transform="rotate(-139.642 90.104 -24.13) scale(8.81264 10.0461)"/><path fill="#43484e" fill-opacity=".502" d="M178.05 180.6l30.275-25.014-5.423-8.887-2.347 15.75"/><ellipse fill="#44461e" fill-opacity=".502" cx="156" rx="10" ry="10"/><path fill="#b0b9bd" fill-opacity=".502" d="M165.233 56.723l8.235 19.565-23.987-9.696-8.688 38.246"/><path fill="#dae4ee" fill-opacity=".502" d="M11.882 213.107l25.82-48.562 4.416 2.348-25.82 48.562z"/><path fill-opacity=".502" d="M152 95h9v8h-9z"/><path fill="#52463c" fill-opacity=".502" d="M209 100l-23 14 6-21"/><path fill="#9da49d" fill-opacity=".502" d="M99 149l-6 25-37 16"/><ellipse fill="#43401e" fill-opacity=".502" cx="237" cy="49" rx="27" ry="6"/><path fill="#453e32" fill-opacity=".502" d="M163 132h9v17h-9z"/><path fill="#000005" fill-opacity=".502" d="M213.743 117.944l5.955-.73 2.56 20.842-5.956.73z"/><path fill="#0a1807" fill-opacity=".502" d="M77.823 113.693l23.935-30.884-69.043 51.233-25.43-43.606"/><path fill="#7b8085" fill-opacity=".502" d="M195.84 157.273l13.11 21.57-9.14-19.773.453-.062"/><path fill="#9ca5ac" fill-opacity=".502" d="M216.67 61.606l-32.366 3.34 24.998-12.304.172 22.286"/><path fill="#393f41" fill-opacity=".502" d="M188 147l6 3-20 5"/><ellipse fill="#060b04" fill-opacity=".502" rx="1" ry="1" transform="rotate(99.454 -19.06 48.734) scale(20.52523 50.79727)"/><ellipse fill="#52531c" fill-opacity=".502" rx="1" ry="1" transform="matrix(-4.96073 -10.015 19.7594 -9.7874 250.62 65.023)"/><path fill="#584b11" fill-opacity=".502" d="M271 219v-11.83l-26.798-22.503 9.074 19.33"/><path fill="#d7e1e6" fill-opacity=".502" d="M131.392 63.22l29.73-3.937 15.36-23.41-32.605-12.87"/><path fill="#2f1a15" fill-opacity=".502" d="M14.17 195.83L.4 219l-3.835-4.578L-16 169.578"/><path fill="#676e2a" fill-opacity=".502" d="M197.187 10.87l-8.03 17.22-6.344-2.96 8.03-17.22z"/><path fill="#878f95" fill-opacity=".502" d="M146.142 92.386l2.775 24.156 3.99-28.31 19.594-3.938"/><path fill="#6d6432" fill-opacity=".502" d="M159.556 28.003l-15.423-5.43 24.12.786 1.688 1.913"/><ellipse fill="#554d3e" fill-opacity=".502" rx="1" ry="1" transform="rotate(27.37 -294.454 352.237) scale(12.26172 14.541)"/><path fill="#696154" fill-opacity=".502" d="M175 168l-13-25-48 1"/><path fill="#1d2908" fill-opacity=".502" d="M34.78-16L55.306 6.99l-31.8-11.426 49.42 78.257"/><path fill="#484823" fill-opacity=".502" d="M194 34l11-16-28 13"/><path fill="#6b7371" fill-opacity=".502" d="M212 64h12v9h-12z"/><path fill="#5d7313" fill-opacity=".502" d="M193.9 5.39l-3.224-.228L180.3 6.805 139.807-16"/><path fill="#4e4948" fill-opacity=".502" d="M173.503 218.684L91.227 219l85.646-36.538 21.822-13.353"/><path fill="#222e02" fill-opacity=".502" d="M227.05 141.384l34.117 29.85-3.136-21-50.263 12.342"/><path fill="#aab4bc" fill-opacity=".502" d="M218 56l-17-13-6 15"/><ellipse fill="#6a6a5f" fill-opacity=".502" rx="1" ry="1" transform="rotate(32.826 -61.2 362.06) scale(2.70074 35.5964)"/><path fill="#d0dae3" fill-opacity=".502" d="M48.5 178.09l-2.49 12.89-10.768-36.645 52.713-21.232"/><path fill="#d1dbd3" fill-opacity=".502" d="M123.25 81.102l5.593 8.29-14.094 9.506-5.593-8.29z"/><path fill="#1f221d" fill-opacity=".502" d="M212.445 114.406l1.81 12.874-30.7 4.314-1.81-12.874z"/><path fill="#dfe6ea" fill-opacity=".502" d="M154.422 37.896l-36.743 9.01-6.508 15.37-.673 5.833"/><path fill="#9ba298" fill-opacity=".502" d="M83.49 169.03l46.922-63.993 32.008 3.38-18.52-4.367"/><path fill="#293900" fill-opacity=".502" d="M264 125l-22-38-15 34"/><path fill="#7e7f71" fill-opacity=".502" d="M126 138l-33 48 12-39"/><path fill="#808159" fill-opacity=".502" d="M81.034 27.28l-4.698-9.147-12.468 2.07 2.822 2.912"/><path fill="#777064" fill-opacity=".502" d="M69 196h39v8H69z"/><ellipse fill="#d7e1e9" fill-opacity=".502" rx="1" ry="1" transform="rotate(106.038 76.092 86.76) scale(2.3168 21.4968)"/><path stroke="#82a8ae" stroke-opacity=".502" fill="none" d="M29.194 207.358q-23.886-20.25 10.204-57.348" stroke-width=".5"/><path fill="#131a20" fill-opacity=".502" d="M200 162l11-22 1 10"/><path fill="#313c12" fill-opacity=".502" d="M79.18 45.456L42.523 7.673l-4.68 1.543 31.052 44.46"/><path fill="#716d3d" fill-opacity=".502" d="M102.122 12.385l6.237-29.344 21.518 4.575-6.237 29.344z"/><path fill="#71777a" fill-opacity=".502" d="M199.42 169.594l2.197-12.946-9.87 2.87 14.69 8.042"/><path fill="#c2cbcf" fill-opacity=".502" d="M66.072 168.17l23.392-16.708-19.814-11.007-12.89 39.505"/><path fill="#bbb961" fill-opacity=".502" d="M105.663 45.702l3.36-8.735 9.863-3.682 13.376 9.675"/><path fill="#979d9d" fill-opacity=".502" d="M223.945 52.406l-70.877 34.978-21.584-18.05 8.566 17.772"/><path fill="#8e9187" fill-opacity=".502" d="M87.616 192.556l30.88-58.903-26.728 28.165-6.505 17.08"/><path fill="#595633" fill-opacity=".502" d="M104 63L70 27l35 15"/><path fill="#ccd6d9" fill-opacity=".502" d="M115.985 30.65l77.397 18.888-78.386-27.957 9.5 10.216"/><path fill="#dee6eb" fill-opacity=".502" d="M49.11 141.63l-20.88 22.28 33.053-14.796L91.76 107.99"/><path fill="#85723e" fill-opacity=".502" d="M253 180h3v13h-3z"/><path fill="#484441" fill-opacity=".502" d="M230.822 80.233l-5.85 25.334-7.794-1.8 5.85-25.334z"/><ellipse fill="#767879" fill-opacity=".502" rx="1" ry="1" transform="rotate(75.76 -12.855 223.6) scale(18.61295 1)"/><path fill="#dfe7eb" fill-opacity=".502" d="M87.884 102.468l7.518 1.225-43.936 44.364 30.728-38.3"/><path fill="#2f2b1e" fill-opacity=".502" d="M226.277 93.97l-4.373 2.426-10.18-18.367 4.372-2.426z"/><path fill="#6a6553" fill-opacity=".502" d="M152 139l-45 20-1 25"/><path fill="#d8e4e9" fill-opacity=".502" d="M180.005 33.56l16.12 7.344-17.577-1.483-32.714-12.133"/><path fill="#b6b76d" fill-opacity=".502" d="M82.896 20.57l15.852 5.915L122.21 38.67 86.706 31.84"/><path fill="#323739" fill-opacity=".502" d="M195 128h9v14h-9z"/><path fill="#181b09" fill-opacity=".502" d="M221 34l-15-24 65 31"/><path fill="#7c796c" fill-opacity=".502" d="M150.273 121.93l-50.913 34.3 30.947-16.353 6.426 16.605"/><path fill="#080a06" fill-opacity=".502" d="M198.69 149.118l-26.638-10.665-1.81-14.665 9.207-2.35"/><path fill="#020201" fill-opacity=".502" d="M204 111l-10 2 11-11"/><path fill="#acb3ac" fill-opacity=".502" d="M106.11 134.56l-7.957 26.076 2.807-52.15 24.045 15.9"/><path fill="#352615" fill-opacity=".502" d="M237 180l8 24v-39"/><path fill="#7d817b" fill-opacity=".502" d="M182.785 92.41l-3.032-22.24-5.062 11.095-2.458 2.082"/><path fill="#4f5052" fill-opacity=".502" d="M209 194l-14-33 3 27"/><path fill="#898555" fill-opacity=".502" d="M128 18l28 2-2-8"/><ellipse fill="#273310" fill-opacity=".502" rx="1" ry="1" transform="rotate(-156.146 129.524 -13.33) scale(7.82887 19.40097)"/><path fill="#342210" fill-opacity=".502" d="M213.426 182.547l-7.38-13.06 36.8 12.8 3.79 2.02"/><ellipse fill="#666051" fill-opacity=".502" rx="1" ry="1" transform="rotate(66.215 13.392 191.462) scale(9.41232 7.70175)"/><path fill="#9a9f9c" fill-opacity=".502" d="M71.902 191.943l6.392.325-27.816-1.398 2.826-14.32"/><path fill="#100f0a" fill-opacity=".502" d="M173 121h7v30h-7z"/><path fill="#0f2d03" fill-opacity=".502" d="M233.105 6.084l3.008 18.405L271-16h-41.79"/><ellipse fill="#0c1c0b" fill-opacity=".502" rx="1" ry="1" transform="matrix(-6.70422 -8.24973 12.55464 -10.20265 55.94 121.588)"/><path fill="#736f62" fill-opacity=".502" d="M156.914 137.82l2.97-.417 3.202 22.776-2.97.417z"/><path fill="#867d54" fill-opacity=".502" d="M105.847 8.887l-1.816 3.564L62.154-8.886l1.816-3.564z"/><path fill="#989b94" fill-opacity=".502" d="M159 65l1 24 13-1"/><ellipse fill="#55552f" fill-opacity=".502" cx="255" cy="58" rx="9" ry="9"/><path fill="#070d07" fill-opacity=".502" d="M68.25 109.098L-16 148.703l31.738 38.376 15.916-33.41"/><path fill="#36350f" fill-opacity=".502" d="M215.79 32.114L197.534-5.11l7.494 50.767-20.874-13.3"/><path fill="#98a3a8" fill-opacity=".502" d="M25.317 217.61l14.467-29.66.9.44-14.468 29.66z"/><path fill="#afbb7a" fill-opacity=".502" d="M108 47h8v5h-8z"/><ellipse fill="#8c8f87" fill-opacity=".502" cx="139" cy="120" rx="10" ry="6"/><path fill="#595834" fill-opacity=".502" d="M81.113 53.668l31.755-3.023L79.792 26.51l4.86 9.936"/><ellipse fill="#dae1e5" fill-opacity=".502" rx="1" ry="1" transform="rotate(-116.332 78.627 -9.313) scale(11.37087 4.437)"/><path fill="#d5dda4" fill-opacity=".502" d="M77 2l26 24V14"/><path fill="#0d1906" fill-opacity=".502" d="M53 44l-60 1 91 30"/><path fill="#c4cbc6" fill-opacity=".502" d="M116 105l-3-14-23 20"/><path fill="#7f8687" fill-opacity=".502" d="M195 76l-3-3 5-8"/><path fill-opacity=".502" d="M161.427 95.912l5.44 4.405-6.294 7.77-5.44-4.404z"/><path fill="#5e625a" fill-opacity=".502" d="M227 77h2v20h-2z"/><path fill="#464319" fill-opacity=".502" d="M213 43l20 33-4-20"/><path fill="#899292" fill-opacity=".502" d="M221.183 60.325l4.49 7.9-23.493-2.775 3.093-14.202"/><ellipse fill="#b6bbbb" fill-opacity=".502" rx="1" ry="1" transform="matrix(-16.71884 3.83204 -.95845 -4.18162 135.64 74.53)"/><path fill="#7c7e75" fill-opacity=".502" d="M50.756 195.387l34.78 4.685-27.267-9.194-3.158-2.82"/><path fill="#373c18" fill-opacity=".502" d="M12.302-4.94l-23.71 23.432 75.207-16.13L33.616 24.66"/><path fill="#dce5e9" fill-opacity=".502" d="M110 71L98 94l21-13"/><path fill="#77796f" fill-opacity=".502" d="M156.13 87.102l25.126 21.727-22.57 14.783 17.907-14.935"/><path fill="#b9c3ce" fill-opacity=".502" d="M29.118 209.018l19.197-22.605 3.706-22.326 3.248 4.49"/><ellipse fill="#59544c" fill-opacity=".502" rx="1" ry="1" transform="matrix(19.63347 1.96015 -.47927 4.80053 167.178 166.14)"/><path fill="#443c31" fill-opacity=".502" d="M189.314 113.404l31.39-16.967-1.087-2.88-54.94 32.06"/><path fill="#ced9e1" fill-opacity=".502" d="M23.01 208.04l7.862-23.938-16.61 5.604 5.687 4.298"/><path fill="#bac3c8" fill-opacity=".502" d="M178.28 44.97l28.766 1.988-31.31 8.998-17.363 25.74"/><ellipse fill="#394901" fill-opacity=".502" rx="1" ry="1" transform="rotate(7.4 -930.24 2022.035) scale(30.89886 9.6175)"/><path fill="#2a390e" fill-opacity=".502" d="M-6.67 42.62l-7.324 24.016L-16 5.31l33.03 35.997"/><ellipse fill="#334200" fill-opacity=".502" rx="1" ry="1" transform="rotate(-140.29 137.42 6.896) scale(10.3381 24.3293)"/><path fill="#cbd4d8" fill-opacity=".502" d="M134.406 61.213L108.24 72.83l52.136-10.74-22.887-9.914"/><ellipse fill="#434a04" fill-opacity=".502" cx="249" cy="78" rx="20" ry="6"/><path fill="#9ba6ad" fill-opacity=".502" d="M148.446 82.908l11.152 10.817-19.888 2.646 5.37 16.463"/><path fill="#1f2b0a" fill-opacity=".502" d="M54.564-.063L93.822-16-16-13.905l60.32 30.332"/><path fill="#0e230e" fill-opacity=".502" d="M62.907 127.168l18.58-18.93-13.92-13.774-12.36 40.33"/><path fill="#4c5637" fill-opacity=".502" d="M212 185h7v19h-7z"/><path stroke="#728587" stroke-opacity=".502" fill="none" d="M16.198 184.72q2.095 10.578-12.03 29.822" stroke-width=".5"/><ellipse fill="#becad8" fill-opacity=".502" rx="1" ry="1" transform="matrix(1.21834 .62316 -1.42902 2.7939 146.52 89.244)"/><path fill="#a5aca8" fill-opacity=".502" d="M104.47 161.735l-11.244-.352-33.48 28.97 17.745-29.158"/><path fill="#000100" fill-opacity=".502" d="M202.757 150.686l-13.18-4.83-9.285-14.442 21.703 17.625"/><path fill="#0d1306" fill-opacity=".502" d="M211.822 15.065l20.173 18.256L239.16-16h-58.05"/><path fill="#3b4822" fill-opacity=".502" d="M223.876 128.175l-.982.19-4.77-24.54.982-.19z"/><path fill="#7c7f77" fill-opacity=".502" d="M174.137 79.527l12.827 14.458-2.064-15.808 9.947 9.342"/><path fill="#d0d87f" fill-opacity=".502" d="M113 43h13v2h-13z"/><path fill="#b4b04f" fill-opacity=".502" d="M100 33l21 6-13 3"/><path fill="#858d61" fill-opacity=".502" d="M58.477.86l5.444 8.693 2.65-3.358L40.064-16"/><path fill="#a6aeb4" fill-opacity=".502" d="M173.585 74.402l13.393-9.858-28.028 1.86 12.29 16.222"/><ellipse fill="#c6c2ac" fill-opacity=".502" rx="1" ry="1" transform="matrix(-2.16997 -1.0054 2.73038 -5.893 33.473 166.012)"/><path fill="#2c3b02" fill-opacity=".502" d="M40.4 31.33L14.285 44.304 42 17.173l-2.776 16.12"/><ellipse fill="#7f8783" fill-opacity=".502" rx="1" ry="1" transform="matrix(-8.81438 -5.87386 1.48868 -2.23394 163.577 92.315)"/><path fill="#152804" fill-opacity=".502" d="M.844 35.6l31.648 17.395 23.217-31.58L16.42 48.708"/><path fill="#414d21" fill-opacity=".502" d="M58.462 30.983l51 41.03-30.89-12.635 2.03-27.895"/><path fill="#7e807c" fill-opacity=".502" d="M155.59 108.017l-22.88 20.115 20.956-6.23-5.097-24.532"/><path fill="#e5ecf2" fill-opacity=".502" d="M147.095 38.298l-12.61 12.59 1.98-12.25 13.045-4.386"/><path fill="#827d58" fill-opacity=".502" d="M83.38 4.546l15.123 6.005 10.05-5.782-40.54-10.333"/><ellipse fill="#5f564e" fill-opacity=".502" rx="1" ry="1" transform="rotate(-107.687 135.96 56.348) scale(23.86852 9.73752)"/><ellipse fill="#b6bdbc" fill-opacity=".502" rx="1" ry="1" transform="matrix(-3.22527 -3.74606 12.83388 -11.04966 97.353 128.407)"/><path stroke="#74997b" stroke-opacity=".502" fill="none" d="M110.338 63.233q2.177 3.913-8.39 21.316" stroke-width=".5"/><path fill="#464232" fill-opacity=".502" d="M173 156l9-6 5 11"/><path fill="#191d1c" fill-opacity=".502" d="M181 135l8 16-14-1"/><path fill="#b0b6a7" fill-opacity=".502" d="M110.496 104.877l-7.81 13.372-7.277-5.58 32.52 5.986"/><path fill="#4b453d" fill-opacity=".502" d="M132 167h35v21h-35z"/><ellipse fill="#3d443a" fill-opacity=".502" cx="202" cy="72" rx="4" ry="4"/><path fill="#b0babc" fill-opacity=".502" d="M212.26 58.623l-1.53 10.893-.99-.14 1.53-10.892z"/><path fill="#cbd4db" fill-opacity=".502" d="M10.57 212.028l81.886-83.043 4.585-31.022-21.325 52.264"/><path fill="#bbbdab" fill-opacity=".502" d="M120.69 33.12l-13.476-5.073 28.4 14.593-3.717-8.774"/><path fill="#2c3f00" fill-opacity=".502" d="M201.872.5l-45.336.085L128.036-16l76.75 22.057"/><path fill="#626234" fill-opacity=".502" d="M150.882 4.107L133.862-16l8.8 24.56 30.917 3.326"/><ellipse fill="#293338" fill-opacity=".502" cx="166" cy="100" rx="2" ry="4"/><path fill="#565d5f" fill-opacity=".502" d="M187.935 147.684l2.94 4.045-.81.586-2.94-4.045z"/><path fill="#b8c2c6" fill-opacity=".502" d="M163.28 71.312l9.246-16.73-30.553 20.953 62.303-22.1"/><ellipse fill="#060b0a" fill-opacity=".502" cx="213" cy="114" rx="4" ry="14"/><path fill="#9da39a" fill-opacity=".502" d="M154.135 109.6l-24.267-12.76-1.583 35.123-22.01-6.937"/></g></svg>