<svg xmlns="http://www.w3.org/2000/svg" width="1024" height="676"><path fill="#a7b1b8" d="M0 0h1024v676H0z"/><g fill-opacity=".502"><path fill="#63613e" d="M986 298L502 542 26 286"/><path fill="#79795b" d="M522 50l152 688-308-96"/><path fill="#d1def0" d="M1086 318L54-14l992-8"/><path fill="#e1eefc" d="M-62 538l440 200 4-308"/><path fill="#d2deef" d="M926 738L578 450l508-80"/><path fill="#242618" d="M626 426l228-84-20 68"/><path fill="#2f3325" d="M410 426L158 314l48 92"/><path fill="#383b28" d="M478 258l76-128 12 128"/><path fill="#c6d4e3" d="M-62 430l412-16L38 738"/><path fill="#cdd8e4" d="M638 442l448 212-428 84"/><path fill="#8b9fb5" d="M650 358L194 118 58 278"/><path fill="#8e8f78" d="M294 274l332 464 24-456"/><path fill="#b7c4d5" d="M994 270l-332 52L426-54"/><path fill="#b9c6d8" d="M862 338l152 400 20-428"/><path fill="#575948" d="M998 310l-168 28 108-64"/><path fill="#484d3e" d="M438 614l-12 124-40-160"/><path d="M390 438l-20-32-72-8"/><path fill="#a0b4d1" d="M-62-62v396l624-216"/><path fill="#505543" d="M502 398l-164-64-120 80"/><path fill="#98afd0" d="M150 322l116 160-328-56"/><path fill="#c6d1db" d="M314 406L-62 654l496 84"/><path fill="#4a4c3d" d="M94 282l-52 36 140 12"/><path fill="#90927d" d="M854 330l-364-76 308 156"/><path fill="#222520" d="M622 450l100-44-84-4"/><path fill="#5b5e4c" d="M558 170l-84 104 8-124"/><path fill="#8b8e7d" d="M646 442L402 738l-12-352"/><path fill="#8aa0be" d="M50 134l492 88-352 88"/><path fill="#b5c1d0" d="M806 422l260 240 20-416"/><path fill="#888b73" d="M414 386H214l-48-96"/><path fill="#222417" d="M714 402l84 12 40-28"/><path fill="#c4d3e2" d="M294 410l100 32-264 40"/><path fill="#c2cfdc" d="M762 414l-32 324-96-296"/><path fill="#cad3dd" d="M558 142L330-42l756 32"/><path fill="#8b8e7d" d="M378 510l272 228-20-416"/><path fill="#080d0b" d="M382 586l20 40 4-40"/><path fill="#474733" d="M478 258l92 8-92-56"/><path fill="#b0bccc" d="M1086 226L446 70l364 244"/><path fill="#070904" d="M278 394l-48 16h100"/><path fill="#a09f88" d="M458 394L302 290l184-28"/><path fill="#acbccf" d="M818 470l56-144 212 104"/><path fill="#bdcbd6" d="M394 602l-456 68 472 68"/><path fill="#96abc6" d="M46 486l116-152-224-24"/><path fill="#60614b" d="M682 410l52-68-104 76"/><path fill="#a7aea9" d="M314 302L46 314l136-48"/><path fill="#c1ccd6" d="M1086 602L654 738l-16-292"/><path fill="#b3c2d5" d="M562 254l188 48L590 86"/><path fill="#d0dcec" d="M382 442v84l-56-104"/><path fill="#afbdcf" d="M462 250L-26-62 502 74"/><path fill="#888971" d="M986 290l-112-8 32 40"/><path fill="#494e3e" d="M366 370l-36-60 116 84"/><path fill="#0c0e0b" d="M662 422l108-12-60-12"/><path fill="#8a9fba" d="M374 122l-272 56 252 108"/><path fill="#76775f" d="M26 306l168 12-96-40"/><path fill="#8f9381" d="M858 302l-48 100-108-100"/><path fill="#2e342c" d="M830 378l28-60 16 8"/><path fill="#535748" d="M530 366l-96 32 100 4"/><path fill="#7e826d" d="M510 462L194 338l128-16"/><path fill="#999c87" d="M786 322l-128 92 76-28"/><path fill="#8f9281" d="M386 574l260 28-252-220"/><path fill="#becbdc" d="M858 366l136-28-128-8"/><path fill="#c3cdd5" d="M-62 530l204 208 120-320"/><path fill="#bfcbd7" d="M842 414l-144 8 72 316"/><path fill="#20231b" d="M262 362l124 60-72-12"/><path fill="#2f3020" d="M922 282l20 16 4-20"/><path fill="#8f917d" d="M642 538L446 274l168-4"/><path fill="#3e453c" d="M442 610l-44 8-16-20"/><path fill="#9fb1ca" d="M194 302L50 238l312 40"/><path fill="#464e3e" d="M418 634l-40 104h32"/><path fill="#4d503f" d="M534 250l28-20-4-76"/><path fill="#b1c0d1" d="M254 462l-84 36-24-168"/><path fill="#494d43" d="M74 326l-36-20 92 12"/><path fill="#a7b9cd" d="M-50 354l12-72 184 72"/><path d="M386 418l-8 16v-24"/><path fill="#545845" d="M734 410l60-60-68 36"/><path fill="#bbc8d4" d="M210 594l184 12-44 132"/><path fill="#a0a493" d="M494 158l52-28-8 32"/><path fill="#c0cbd7" d="M1058 390l-164-32 192-100"/><path fill="#757762" d="M390 466l24 64-12 60"/><path fill="#3e4333" d="M230 414l60-16-84-4"/><path fill="#090b08" d="M658 430l-16-16-4 24"/><path fill="#171b1b" d="M874 318l44 12 4-12"/><path fill="#9b9c8a" d="M502 314l88 72-52-140"/><path fill="#b6bfcb" d="M934 94l152 156-220 40"/><path fill="#adbbcb" d="M-62 14l84 356 84-432"/><path fill="#222618" d="M514 178l-4-16-16 8"/><path fill="#8fa3ba" d="M126 430l-188 28 148-96"/><path fill="#a0a087" d="M554 210h-48l-4 24"/><path fill="#7d7f6b" d="M478 414l20 76 96-120"/><path fill="#808574" d="M546 646l-52 92-16-228"/><path fill="#141813" d="M174 326H98l44-12"/><path fill="#989880" d="M158 298l4 20-76-4"/><path fill="#7f8270" d="M166 306l112 52-48 24"/><path fill="#a0b1c8" d="M122 82l360 52-16 132"/><path fill="#abb9cb" d="M918 330l-88 80 244 108"/><path fill="#52574a" d="M874 310l-72 88 52-20"/><path fill="#949886" d="M870 290l12 28 100-28"/><path fill="#858875" d="M278 386l-44 8-76-96"/><path fill="#151a15" d="M502 242l12 12 28-16"/><path fill="#0d0f0b" d="M638 434l32-8-32-8"/><path fill="#c3ccd6" d="M1086 662L850 438 706 710"/><path fill="#929788" d="M518 174l28 12-40 4"/><path fill="#939789" d="M538 382H426l-112-80"/><path fill="#6b6f5c" d="M654 418l-20-76-4 80"/><path fill="#a9b9ce" d="M850 386l20-52 72 100"/><path fill="#9caec6" d="M158 326H-2l188 56"/><path fill="#7a7e69" d="M330 314l32 96-88-44"/><path fill="#aebacc" d="M746 306l-176-52 384-72"/><path fill="#c8d2db" d="M-62 654l448-196-216 264"/><path fill="#8298b4" d="M362 238l-228-16 44-48"/><path fill="#404635" d="M218 386l-52-76 20 60"/><path fill="#8b8e7e" d="M646 594l-28-260-116 152"/><path fill="#bbc8d5" d="M454 138L398 30l364 84"/><path fill="#646751" d="M506 258l-24-76-12 84"/><path fill="#a0a393" d="M650 342l36-44-68-24"/><path fill="#bdcad6" d="M390 462l-112-48-212 92"/><path fill="#a1b3c4" d="M26 150L86 26 74 302"/><path fill="#929785" d="M414 658l-4 76 108-152"/><path fill="#292c20" d="M922 294l-4-12h28"/><path fill="#818675" d="M814 330l-60 60 60 4"/><path fill="#2c2f25" d="M390 358l-32-12 36 28"/><path fill="#a9a88d" d="M318 318l-96-8 76-20"/><path fill="#161814" d="M382 598l8 4 8-24"/><path fill="#0a0e04" d="M86 282l4 12-8-12"/><path fill="#c2cfdc" d="M666 650l-24-204 64-24"/><path fill="#b9c4d2" d="M1018 418l32-100-184 16"/><path fill="#11140d" d="M738 390h-20v16"/><path fill="#979986" d="M586 678l-24-228-68 52"/><path fill="#bac7d3" d="M402 634l-264-4 236 108"/><path fill="#ccd4df" d="M858-62L666 62 418 10"/><path fill="#3b3f3a" d="M974 310h-24l-8 12"/><path fill="#9e9f8d" d="M454 554l24-92-28-40"/><path fill="#4f5445" d="M446 626l-44 32 24-32"/><path fill="#33362d" d="M734 418l36-28 52 16"/><path fill="#7d7f6d" d="M386 578l16 4-12-56"/><path fill="#797c6a" d="M962 314l-56-24 84 8"/><path fill="#91937f" d="M482 290l92 4-80-40"/><path fill="#989b89" d="M778 302l-88 20-48 76"/><path fill="#848979" d="M442 570l-36 64h44"/><path fill="#636753" d="M214 322l60 48-52-20"/><path fill="#c8d3de" d="M358 430l28 24-92 56"/><path fill="#c2cad4" d="M1086 98l-488 40L986-62"/><path fill="#b6c1cd" d="M762 122l324 28-212 144"/><path fill="#959786" d="M434 402l-4 120-36-144"/><path fill="#a6b7c8" d="M202 294L42 270l24-36"/><path fill="#939684" d="M506 230l32-4-44-28"/><path fill="#6e725d" d="M390 390l-80-20-48-52"/><path fill="#c0ccd4" d="M54 458l76 212-192-100"/><path fill="#8e8f79" d="M238 298l96 76-152-64"/><path fill="#43483b" d="M510 390h-64l36 16"/><path fill="#b1bfd1" d="M678 274L566 134v128"/><path fill="#5e6354" d="M566 210l-32 48 16-104"/><path fill="#5b604d" d="M738 350l20-28-56 36"/><path fill="#7b7e69" d="M402 414l-88-28 8-84"/><path fill="#b4c1cf" d="M162-46L122 54l376 60"/><path fill="#b6c1cc" d="M934 158l20 128 132-12"/><path fill="#23251f" d="M866 322l-12 4-4 20"/><path fill="#959888" d="M490 162l28-28 32 28"/><path fill="#232622" d="M238 394l-8 16 36 4"/><path fill="#96a8c1" d="M302 290l-108-96-44 104"/><path fill="#656750" d="M510 378h24l12-24"/><path fill="#7f806c" d="M470 270l56 124-40-24"/><path fill="#3a3f35" d="M94 294l12-12-24 4"/><path fill="#131410" d="M330 402l32 16h-36"/><path fill="#a7b7ca" d="M894 386l-100 36h164"/><path fill="#9b9984" d="M70 294l36 4 20 20"/><path fill="#bdc8d3" d="M666 434l400 160-236-180"/><path fill="#8f9382" d="M398 362l-72-56 140-4"/><path fill="#32372c" d="M534 162v24l12-16"/><path fill="#1a1f1e" d="M938 318h-24l8 8"/><path fill="#8e8f79" d="M638 418l28-20 16 4"/><path fill="#3f453b" d="M202 358l8 24 16 8"/><path fill="#868875" d="M894 290l56 24 16-20"/><path fill="#acbacc" d="M318 66l180 52-28 76"/><path fill="#aebbcd" d="M686 294l148 4 132-100"/><path fill="#979988" d="M538 326l-44-84 20 132"/><path fill="#767b6b" d="M546 214l-20-36 24 4"/><path fill="#b2c1d0" d="M-30 474l304-60-140 80"/><path fill="#9daec4" d="M134 450l44-84-140-52"/><path fill="#565947" d="M658 414l28-32h-16"/><path fill="#181a15" d="M322 406l40 4 20 20"/><path fill="#808371" d="M746 394l76-64-24 64"/><path fill="#949788" d="M658 286l-32 56-64-76"/><path fill="#7c96b8" d="M298 190l-40 48 88 4"/><path fill="#3c3f33" d="M554 258l-16-16 12-24"/><path fill="#575a48" d="M486 174l-4 44 24 36"/><path fill="#898c7b" d="M518 402l120 72-8-88"/><path fill="#2d3129" d="M390 442l-4-24-20-12"/><path fill="#282a23" d="M734 394l-52 28 80-12"/><path fill="#898e7d" d="M386 554V438l40-28"/><path fill="#767965" d="M986 298l-12-12-44 16"/><path fill="#929584" d="M846 310l-76-4-92 100"/><path fill="#c7d1db" d="M278 482l108-32-4 68"/><path fill="#a0b0c3" d="M58 66l20 204 76 20"/><path fill="#8c917e" d="M566 154l-44-8 20-8"/><path fill="#555845" d="M706 358l28-12-44 40"/><path fill="#919584" d="M702 318l-48 80 108-88"/><path fill="#98acc5" d="M374 142l80 116-108 20"/><path fill="#878c7b" d="M810 334l-92 56 44-60"/><path fill="#767968" d="M538 622l-40-24-12-48"/><path fill="#404535" d="M378 350l12 32-56-56"/></g></svg>