<svg xmlns="http://www.w3.org/2000/svg" width="676" height="1024"><path fill="#87806c" d="M0 0h676v1024H0z"/><g fill-opacity=".502"><path fill="#fff" d="M-62 618L10-62l728 232"/><path d="M710 318l-40 768-732-124"/><path fill="#15130d" d="M18 1086l456-576-536 48"/><path fill="#ffffd1" d="M-62 590L6-62 654 50"/><path fill="#dcc392" d="M-62 550l800-72-96-540"/><path fill="#fffff3" d="M-34 322l20-336 632 260"/><path fill="#282a23" d="M674 422l-4 620-732-24"/><path fill="#caaf7e" d="M426 370L206 198l-96 360"/><path fill="#b09e89" d="M738 26L534 198 46-62"/><path fill="#3c392f" d="M-62 690l168 396 632-636"/><path fill="#f7edca" d="M222 158l516 52-396 120"/><path fill="#fffff6" d="M-62 22l76 388L286 78"/><path fill="#887c5e" d="M606 510l132-236-356 164"/><path fill="#ecd6a4" d="M-62 338l52 200 440-32"/><path fill="#3c3a30" d="M18 1086l720-376-800-72"/><path fill="#dfcba6" d="M446 214L550 98 130-6"/><path fill="#b2a17f" d="M530 506l-248-12-16-268"/><path fill="#9c9482" d="M338 82l400-8L582-62"/><path fill="#ebd09b" d="M210 206v212L54 438"/><path fill="#f7edcc" d="M250 30l284 280-212 8"/><path fill="#272923" d="M678 1086l-740-60 736-156"/><path fill="#b1a88f" d="M618 182l-272 8L738 50"/><path fill="#c4b494" d="M698 238l-132-4-156 144"/><path fill="#736549" d="M266 534l-220 8-4 64"/><path fill="#ffeeb6" d="M-62 378l88 160 124-248"/><path fill="#ebe4c7" d="M738 138l-36 104-208-16"/><path fill="#3c3930" d="M194 1054L-62 770l532-264"/><path fill="#fef9dc" d="M266 258l68-124L-22-34"/><path fill="#e8e0c4" d="M398 98l196-12-108 40"/><path fill="#ccb88e" d="M222 206l-64 332 184-128"/><path fill="#a59575" d="M406 338l-128 68 272 100"/><path fill="#e4cba1" d="M342 34L98 46 90-62"/><path fill="#837756" d="M502 402l236 12-176 96"/><path fill="#d8c499" d="M506 314l-172-8 96 56"/><path fill="#665842" d="M302 522H182l52 44"/><path fill="#e7d8b2" d="M-10 546l-52-80 296 52"/><path fill="#beac86" d="M374 486l-132 40 52-292"/><path fill="#f9f8fd" d="M-62 418L90 246-18 2"/><path fill="#3e3b30" d="M602 794l-664-88 32 292"/><path fill="#baa98d" d="M478 98l4-136-204 68"/><path fill="#2c2e2a" d="M622 754l116-156-484 52"/><path fill="#f9f2d4" d="M210 34l124 288 64-128"/><path fill="#9b9381" d="M690-34L378 14l360 64"/><path fill="#5a5241" d="M218 642l-280-80 268-24"/><path fill="#463e30" d="M494 566l188-80-336 44"/><path fill="#a39678" d="M738 370l-16-112-296 144"/><path fill="#46443a" d="M238 638l20-140 16 116"/><path fill="#b9a988" d="M442 386l236-144-136 16"/><path fill="#e1cb9e" d="M258 302l-76-68L82 538"/><path fill="#191f1f" d="M606 1082l132-472v332"/><path fill="#fffedf" d="M146 306l96-160-264 200"/><path fill="#33322a" d="M126 1086l88-252 476 252"/><path fill="#eee6c7" d="M334 322l308-96-296-4"/><path fill="#e0ceab" d="M414 154L190 22l192 52"/><path fill="#434138" d="M126 614l344-104-72 120"/><path fill="#2b281f" d="M54 598l-116 64v-52"/><path fill="#948869" d="M482 414l52 92 136-164"/><path fill="#c5b698" d="M414 118l20 76 168-12"/><path fill="#cbba95" d="M406 482l-20 32 120-16"/><path fill="#eedaac" d="M202 250L38 550l-100-40"/><path fill="#989180" d="M650 130L598-62l140 168"/><path fill="#fbeac1" d="M38-10l80 68 92-4"/><path fill="#706446" d="M738 446l-44-60-136 120"/><path fill="#cdbc9c" d="M254-62L162-6l272 108"/><path fill="#2a261a" d="M650 494l16 96 36-132"/><path fill="#ac9b7a" d="M346 490l-24-172 168 68"/><path fill="#cab68d" d="M242 258l20 268 56-220"/><path fill="#444034" d="M290 934l32-160 132 16"/><path fill="#d3bf94" d="M106 486l168-240-56 276"/><path fill="#fafae8" d="M118 198l260 16L-58-30"/><path fill="#e3d1ab" d="M350 174l96-12-36 40"/><path fill="#f1e9c7" d="M414 294l132-64-60 88"/><path fill="#4a4536" d="M458 962l-16 32 52 60"/><path fill="#706246" d="M86 586l4-40-152 8"/><path fill="#2e3029" d="M578 942H246l444-124"/><path fill="#5a503e" d="M238 542l164 24-84-48"/><path fill="#fbf5d8" d="M250 150v104l160-112"/><path fill="#474234" d="M482 922l-56-32 20 56"/><path fill="#33332b" d="M106 786L-62 918 6 718"/><path fill="#444032" d="M322 798L74 930l28-108"/><path fill="#fff5c8" d="M142 274L42 402l-104-8"/><path fill="#b3ab93" d="M686 142l-136 32 28-128"/><path fill="#373124" d="M418 578l-52-56 48-4"/><path fill="#565346" d="M478 530h-60l24 32"/><path fill="#e5d2a3" d="M226 246L46 466l48 76"/><path fill="#554f41" d="M154 574l-20 80-152-92"/><path fill="#4b432e" d="M602 486l72-16-128 72"/><path fill="#4b4536" d="M174 678L50 706l-68-92"/><path fill="#c7b28b" d="M286 242l-80 276 128-180"/><path fill="#867a59" d="M670 478l-32-64-56 12"/><path fill="#524b38" d="M258 918l-60 44 48-12"/><path fill="#36352e" d="M226 634l416 52-356 104"/><path fill="#fff8d4" d="M106 50L-62 30 38-30"/><path fill="#fcf9dd" d="M254 66l-72-8 60 124"/><path fill="#c2b69b" d="M586 98l28-36-136 24"/><path fill="#aa9d80" d="M570 374l168-132H614"/><path fill="#f2e4c2" d="M310 162l56-60-88-8"/><path fill="#4b4637" d="M546 902l-48-16 8 28"/><path fill="#9e8f71" d="M514 510L410 362l92 40"/><path fill="#f1eace" d="M282 218l68 108 128-124"/><path fill="#dec89c" d="M238 230l-68 36 24-44"/><path fill="#ac9f88" d="M422 54L334-62 710 78"/><path fill="#4f493c" d="M226 662l-16-136 48 8"/><path fill="#34332d" d="M546 622l-216-32 408-60"/><path fill="#22231f" d="M226 1086l-24-80-64-8"/><path fill="#f8f9f1" d="M122 58L-42 42 90 278"/><path fill="#181d1d" d="M458 1034l100-56-44-4"/><path fill="#908979" d="M626-62l-64 72 176 32"/><path fill="#2d2e29" d="M338 850l128 32-52-48"/><path fill="#e6ddbf" d="M578 250l-112-52 272-8"/><path fill="#dac79f" d="M402 298l56 20-116 4"/><path fill="#a19374" d="M38 554l-4-12 40-4"/><path fill="#323228" d="M-30 1070l84-204 40 72"/><path fill="#908464" d="M498 450l56 52 16-100"/><path fill="#786744" d="M58 1018l-56 52 132-28"/><path fill="#857751" d="M6 958l-56-44 20 60"/><path fill="#a79d88" d="M738 130L610 38l-16 88"/><path fill="#cab88f" d="M150 466l104 64-20-88"/><path fill="#efe4c5" d="M478 122l-12-24h80"/><path fill="#574f3b" d="M426 1006h-24v32"/><path fill="#d6c7a3" d="M274 494l48 20 56-12"/><path fill="#444133" d="M34 822l-60 156 68-72"/><path fill="#dec99d" d="M222 306L86 474l40 68"/><path fill="#262824" d="M258 942l-48-8 84-24"/><path fill="#554e3a" d="M66 978l12-4-32-36"/><path fill="#685c42" d="M202 990l-12 16v-16"/><path fill="#232622" d="M174 970l12-20-48-28"/><path fill="#c4b495" d="M362 94L274-42 446 82"/><path fill="#f8f3d7" d="M390 222l-68-80-68 104"/><path fill="#645a42" d="M98 902l4 24-20-24"/><path fill="#292b27" d="M738 930l-132-88-40 176"/><path fill="#716348" d="M254 1010v-16h12"/><path fill="#bcaa84" d="M314 302l56 76-120 120"/><path fill="#5c5540" d="M146 830l8 24h-24"/><path fill="#71644a" d="M150 538L34 586l8-36"/><path fill="#33322a" d="M186 862L58 898l64-48"/><path fill="#d1c19c" d="M378 498l28-4 32 20"/><path fill="#4a4636" d="M626 930l-4-40-16 4"/><path fill="#d0c4a6" d="M738 110l-140 72h140"/><path fill="#252722" d="M126 946l20 20-76 8"/><path fill="#3a372e" d="M338 962l72-20-92 128"/><path fill="#454133" d="M270 934l-104-8-16-44"/><path fill="#d9ccae" d="M358 94l148-4-144 48"/><path fill="#59533c" d="M558 970l-40-8 16-4"/><path fill="#cfba91" d="M286 242l-8 140-52-96"/><path fill="#f0e8c5" d="M-10 542l-20-24 84 8"/><path fill="#e0ceab" d="M186 50L78-14l240 56"/><path fill="#514b37" d="M134 966l-4 36-20-24"/><path fill="#352e22" d="M458 514l56 20 40-20"/><path fill="#cbbfa3" d="M530 130l-176-12 76 32"/><path fill="#5f5541" d="M314 534l-164 40 64-48"/><path fill="#312c1f" d="M338 550l12-12-12-12"/><path fill="#f8e9b9" d="M58 342L2 454l152-156"/><path fill="#5a513b" d="M58 1006l-20-8 24-8"/><path fill="#444135" d="M546 754l16 32-116 16"/><path fill="#2b2b26" d="M154 906l-8-24-60 48"/><path fill="#d9c396" d="M214 206l8 132 28-92"/><path fill="#ebe0bb" d="M186 530l-28-4 20-8"/><path fill="#5a523d" d="M442 870l-8-8h36"/><path fill="#262724" d="M378 930l-68 4 44-56"/><path fill="#423f34" d="M134 718l352 112-196-8"/><path fill="#cec1a1" d="M98 526l-44 4 16 12"/><path fill="#ab9c7c" d="M422 442l108 60-200-28"/><path fill="#464439" d="M550 526h-84l-92 68"/><path fill="#33332b" d="M194 914l144-72-108-4"/><path fill="#262926" d="M690 634l-76-24-108 40"/><path fill="#242623" d="M418 970l48 36-116-20"/><path fill="#675841" d="M458 518l-12-12h56"/><path fill="#574f41" d="M366 566l8-52-24 24"/><path fill="#563d22" d="M194 534l-12 4 4-8"/><path fill="#3e3c33" d="M382 586l-88 60 244-40"/><path fill="#cdc2a6" d="M578 106l-64 20 64-48"/><path fill="#2b2d28" d="M494 810l-16 112-20-80"/><path fill="#ece5c8" d="M502 206l-84-8-20 104"/><path fill="#212421" d="M290 1054l48-64-68 12"/><path fill="#c1b08e" d="M646 242l-164 96 68-76"/><path fill="#4d483c" d="M22 574l-76-12 80 44"/><path fill="#5e543b" d="M94 998l-8 8h28"/><path fill="#58513c" d="M454 982l-24 4 16 8"/><path fill="#33322b" d="M-62 914l88-4L2 686"/><path fill="#282923" d="M130 1026l-52-60 28-8"/><path fill="#57503c" d="M106 838l-24 40 24-16"/><path fill="#524b3a" d="M598 690l4-12h32"/><path fill="#6e6144" d="M454 918l-16-4 8-8"/><path fill="#38372e" d="M190 634l104 148 140-92"/><path fill="#b8a98e" d="M374-42l-4 96 104 32"/><path fill="#e6d8b1" d="M98 498l-72 36 112-12"/><path fill="#534c3b" d="M354 874l24-12-56-8"/><path fill="#c8b591" d="M394 342l56 28 28-48"/><path fill="#f3e2bb" d="M174 42l104 32-36-32"/><path fill="#484335" d="M258 882l4-36 20 64"/><path fill="#faf2d3" d="M202 122l64 36 20-68"/><path fill="#625944" d="M30 602l56-64 32 52"/><path fill="#f9fae6" d="M62 86l188-20-108 212"/><path fill="#171d1d" d="M470 914l8-16 32 4"/><path fill="#c9b893" d="M354 518h-92l-8-56"/><path fill="#4c4636" d="M138 902l-40 44 20 4"/><path fill="#b7a98e" d="M530 178l84-44-140 24"/><path fill="#3f3c31" d="M458 986l36-40 44-8"/><path fill="#292b27" d="M406 830l40 76 4-32"/></g></svg>