<svg xmlns="http://www.w3.org/2000/svg" width="1024" height="676"><path fill="#565f59" d="M0 0h1024v676H0z"/><g transform="matrix(4 0 0 4 2 2)"><ellipse fill-opacity=".502" rx="1" ry="1" transform="rotate(88.384 -22.738 141.754) scale(50.05075 200.1282)"/><ellipse fill="#cad3c6" fill-opacity=".502" rx="1" ry="1" transform="matrix(.3365 45.16486 -249.776 1.861 119.01 22.486)"/><ellipse fill-opacity=".502" rx="1" ry="1" transform="rotate(2.802 -3289.92 2399.347) scale(214.89486 38.59203)"/><ellipse fill-opacity=".502" cx="57" cy="130" rx="7" ry="45"/><path fill-opacity=".502" d="M153.956 69.978l111.983-1.955.104 6-111.983 1.954z"/><ellipse fill="#68899d" fill-opacity=".502" rx="1" ry="1" transform="matrix(253.44122 11.07533 -.69498 15.9035 153.563 6.98)"/><ellipse fill-opacity=".502" rx="1" ry="1" transform="rotate(-84.916 134.777 -31.38) scale(17.56618 5.9108)"/><ellipse fill="#b49d73" fill-opacity=".502" cx="59" cy="55" rx="255" ry="13"/><path fill="#000200" fill-opacity=".502" d="M110 98l-122 73 122-11"/><ellipse fill="#374e4e" fill-opacity=".502" rx="1" ry="1" transform="matrix(101.18912 -5.27147 .6556 12.5848 208.082 113.733)"/><ellipse fill="#74877f" fill-opacity=".502" cx="70" cy="83" rx="138" ry="10"/><ellipse fill="#9daca5" fill-opacity=".502" rx="1" ry="1" transform="rotate(90.04 35.3 69.08) scale(22.07973 81.64906)"/><ellipse fill-opacity=".502" cx="205" cy="142" rx="8" ry="38"/><ellipse fill-opacity=".502" cx="154" cy="134" rx="5" ry="45"/><path fill-opacity=".502" d="M185 139h71v30h-71z"/><ellipse fill="#010200" fill-opacity=".502" cx="106" cy="108" rx="6" ry="18"/><path fill="#596b67" fill-opacity=".502" d="M110 110h39v15h-39z"/><path fill-opacity=".502" d="M54 86h6v28h-6z"/><path fill="#455b56" fill-opacity=".502" d="M6 108l91 2-54 15"/><ellipse fill="#4c5f5d" fill-opacity=".502" cx="172" cy="112" rx="14" ry="20"/><path fill="#707f75" fill-opacity=".502" d="M83 72l20 40-40-17"/><ellipse fill="#647e85" fill-opacity=".502" rx="1" ry="1" transform="matrix(120.46094 27.47403 -3.4107 14.9543 226.69 0)"/><ellipse fill="#483d3a" fill-opacity=".502" cx="196" cy="67" rx="31" ry="4"/><path fill="#1a1414" fill-opacity=".502" d="M108.444 73.214l.14-3.998 44.972 1.57-.14 3.998z"/><ellipse fill="#2e4343" fill-opacity=".502" rx="1" ry="1" transform="rotate(-109.173 163.973 -26.867) scale(16.29923 37.2837)"/><path fill="#060c0d" fill-opacity=".502" d="M53 100h12v43H53z"/><ellipse fill="#988f6f" fill-opacity=".502" cx="251" cy="59" rx="41" ry="8"/><path fill="#040905" fill-opacity=".502" d="M42.986 171.704l-38.972-22.5 19-32.908 38.972 22.5z"/><ellipse fill="#8b7360" fill-opacity=".502" cx="62" cy="66" rx="125" ry="5"/><ellipse fill="#84999e" fill-opacity=".502" rx="1" ry="1" transform="rotate(91.835 46.123 64.814) scale(11.0143 125.88824)"/><path fill="#5f716a" fill-opacity=".502" d="M66 90h13v31H66z"/><path fill="#637168" fill-opacity=".502" d="M51.28 66.472l1.653 43.82-60.83-5.017 26.21-39.433"/><ellipse fill="#121c22" fill-opacity=".502" cx="235" cy="73" rx="36" ry="3"/><ellipse fill="#a6a992" fill-opacity=".502" cx="99" cy="45" rx="125" ry="10"/><path fill="#030b0a" fill-opacity=".502" d="M70 134l65 21 77-26"/><path fill="#3d4d4c" fill-opacity=".502" d="M206.744 102.06l-43.766 16.754 9.116 17.927 26.178-14.08"/><path fill="#000002" fill-opacity=".502" d="M158 94l-10 12 11 20"/><path fill="#141e1d" fill-opacity=".502" d="M58.952 128.485l42.574 27.303 78.2-6.73-79.818 33.608"/><path fill="#677770" fill-opacity=".502" d="M135.6 102.988l20.507-9.51-63.633-20.897 30.374 34.006"/><path fill="#3c5450" fill-opacity=".502" d="M36 112l-52 4 28 8"/><ellipse fill="#ae9f7f" fill-opacity=".502" cx="92" cy="56" rx="80" ry="9"/><path fill="#556a68" fill-opacity=".502" d="M168 75h57v24h-57z"/><path fill-opacity=".502" d="M147.497 109.318l15.047-9.798-7.14-6.07-7.797 9.09"/><path fill="#425a58" fill-opacity=".502" d="M220 76h36v29h-36z"/><ellipse fill="#020400" fill-opacity=".502" cx="16" cy="156" rx="27" ry="13"/><ellipse fill="#7f908b" fill-opacity=".502" rx="1" ry="1" transform="matrix(7.90688 -12.75328 45.3503 28.11662 255 39.88)"/><path fill="#6f7c74" fill-opacity=".502" d="M35 76l66 22 12-24"/><path fill="#000001" fill-opacity=".502" d="M52 96h11v12H52z"/><path fill="#455450" fill-opacity=".502" d="M82.994 113.413l-31.755 8.745 14.673-18.236 36.768 7.545"/><path fill="#0a0f0d" fill-opacity=".502" d="M45.006 140.31l-7.226 39.275 36.442-5.292-14.87-81.626"/><path fill="#4c5d57" fill-opacity=".502" d="M46.07 129.308l8.274-18.855-70.344-7.8 62.57 24.43"/><path fill="#050907" fill-opacity=".502" d="M85.18 111.114l35.713 21.105-22.73 29.13-24.417-34.948"/><path fill="#060a04" fill-opacity=".502" d="M102 97h11v5h-11z"/><path fill="#586c6f" fill-opacity=".502" d="M46 74h137v3H46z"/><path fill="#405150" fill-opacity=".502" d="M136 108h15v20h-15z"/><path fill-opacity=".502" d="M136 130l-24 2 10-10"/><path fill="#4a5b57" fill-opacity=".502" d="M151.157 111.607l-5.194-3.25-34.7-.244-.096 19.7"/><path fill="#af8a65" fill-opacity=".502" d="M167 59h48v5h-48z"/><path fill="#0a100e" fill-opacity=".502" d="M136.617 164.212l11.448-39.86 18.46 3.834L150.348 184"/><ellipse fill="#3f3837" fill-opacity=".502" cx="97" cy="71" rx="29" ry="2"/><ellipse fill="#a38f70" fill-opacity=".502" rx="1" ry="1" transform="rotate(-176.12 16.072 29.407) scale(53.07266 4.72377)"/><path fill="#000100" fill-opacity=".502" d="M194.455 145.805l-22.373 32.705L271 148.134 241.96 184"/><path fill="#576a64" fill-opacity=".502" d="M84 95h16v17H84z"/><ellipse fill="#0f110f" fill-opacity=".502" cx="206" cy="125" rx="4" ry="22"/><ellipse fill="#181f1d" fill-opacity=".502" cx="51" cy="139" rx="37" ry="3"/><path fill="#495a57" fill-opacity=".502" d="M56 116h8v4h-8z"/><ellipse fill="#949d8b" fill-opacity=".502" rx="1" ry="1" transform="matrix(35.97353 -1.30983 .3722 10.22218 222.21 46.388)"/><path fill="#151e1d" fill-opacity=".502" d="M35.38 162.063l25.523-4.96 1.717 8.834-25.523 4.96z"/><path fill="#182323" fill-opacity=".502" d="M81 158h53v11H81z"/><path fill="#070f11" fill-opacity=".502" d="M184 128h25v20h-25z"/><path fill="#000001" fill-opacity=".502" d="M57 84l-4 17 9 3"/><ellipse fill="#958e72" fill-opacity=".502" cx="255" cy="57" rx="25" ry="11"/><path fill="#080a06" fill-opacity=".502" d="M108 91l-8 13 8 21"/><path fill="#6e7970" fill-opacity=".502" d="M62 79h43v18H62z"/><path fill="#606f69" fill-opacity=".502" d="M158 75h40v20h-40z"/><path fill="#607068" fill-opacity=".502" d="M62 106h13v5H62z"/><ellipse fill-opacity=".502" rx="1" ry="1" transform="matrix(-22.24373 -6.92324 1.76106 -5.65813 56.616 153.937)"/><ellipse fill="#51625d" fill-opacity=".502" rx="1" ry="1" transform="rotate(154.005 94.046 72.69) scale(31.1542 5.90405)"/><path fill-opacity=".502" d="M0 125h6v18H0z"/><path fill="#415150" fill-opacity=".502" d="M180 111l20-7-1 25"/><path fill-opacity=".502" d="M58 104l8-3-5-2"/><path fill="#6b786c" fill-opacity=".502" d="M18 79h34v22H18z"/><path fill="#121c18" fill-opacity=".502" d="M190.58 160.67l-36.723 4.51-2.438-19.85 36.723-4.51z"/><path fill="#465952" fill-opacity=".502" d="M-3.296 116.75l8.48-13.57 16.112 10.07-8.48 13.57z"/><path fill="#535d5e" fill-opacity=".502" d="M-10.734 77.645l-.47-8.987 43.938-2.303.47 8.987z"/><path fill="#0b1112" fill-opacity=".502" d="M75.065 135.55l-20.412-26.48 11.55-9.175-9.162 3.032"/><path fill="#000101" fill-opacity=".502" d="M121.773 142.575l-22.877 8.05-8.356.376 10.908 12.155"/><path fill="#161b19" fill-opacity=".502" d="M108 134l51-4-27 15"/><path fill="#5f5347" fill-opacity=".502" d="M196.46 62.377L271 69.74l-63.61.112 18.204.337"/><path fill="#111819" fill-opacity=".502" d="M117.443 68.563l2.74 1.22-1.626 3.654-2.74-1.22z"/><path fill="#202423" fill-opacity=".502" d="M165 70h82v4h-82z"/><ellipse fill="#96a59d" fill-opacity=".502" cx="106" cy="33" rx="117" ry="7"/><path fill="#56665d" fill-opacity=".502" d="M11 99h42v14H11z"/><ellipse fill="#121b19" fill-opacity=".502" cx="38" cy="133" rx="18" ry="8"/><path fill="#050c0b" fill-opacity=".502" d="M214 173l-22-41 46 7"/><path fill="#607e85" fill-opacity=".502" d="M211-1l60 15-1-30"/><path fill="#364746" fill-opacity=".502" d="M241.64 127.176l-5.7 3.96-28.458-1.94 14.255-23.245"/><path fill="#585652" fill-opacity=".502" d="M159.79 70.735l-.244-1.985 44.664-5.485.244 1.985z"/><path fill-opacity=".502" d="M140.618 152.343l9.893-1.827-22.445-4.834-.09 11.33"/><ellipse fill-opacity=".502" cx="24" cy="124" rx="5" ry="5"/><path fill="#778d91" fill-opacity=".502" d="M-16 33.33V13.256L2.674-16 60.362-4.685"/><path fill-opacity=".502" d="M152.375 103.39l-1.88-.684 5.13-14.096 1.88.684z"/><path fill="#758b95" fill-opacity=".502" d="M146.09-16L271 26.25 142.398 3.436l-137.683.1"/><path stroke="#0a1315" stroke-opacity=".502" fill="none" d="M269.824 160.122q-92.326-39.42-113.327-35.065" stroke-width=".5"/><path fill="#a69475" fill-opacity=".502" d="M74 60h97v6H74z"/><path fill="#020502" fill-opacity=".502" d="M52 118l4 21 24-6"/><ellipse fill="#6c7a73" fill-opacity=".502" cx="98" cy="81" rx="71" ry="6"/><path fill="#495c5b" fill-opacity=".502" d="M101 111h2v5h-2z"/><path fill="#26393b" fill-opacity=".502" d="M202 132h54v4h-54z"/><ellipse fill="#6a615b" fill-opacity=".502" cx="60" cy="70" rx="50" ry="2"/><path fill="#0a0b08" fill-opacity=".502" d="M205 106h4v40h-4z"/><path fill="#9f8d73" fill-opacity=".502" d="M69 69l-13-8 37 2"/><ellipse fill="#4c5d59" fill-opacity=".502" cx="58" cy="114" rx="2" ry="2"/><ellipse fill="#a5ab99" fill-opacity=".502" cx="104" cy="44" rx="45" ry="8"/><path fill="#191612" fill-opacity=".502" d="M105 90h4v15h-4z"/><ellipse fill="#ce9d72" fill-opacity=".502" cx="196" cy="60" rx="7" ry="3"/><path fill="#000202" fill-opacity=".502" d="M152 122l-5 8h17"/><ellipse fill="#202322" fill-opacity=".502" cx="146" cy="72" rx="38" ry="1"/><ellipse fill="#0d1413" fill-opacity=".502" cx="255" cy="140" rx="93" ry="3"/><path fill="#445452" fill-opacity=".502" d="M158 110h36v9h-36z"/><ellipse fill="#83979b" fill-opacity=".502" rx="1" ry="1" transform="rotate(-5.344 200.373 -316.618) scale(105.047 8.13864)"/><path fill="#1b1b13" fill-opacity=".502" d="M213.845 121.81l-5.656-16.473-23.404 50.33 13.053-29.313"/><path fill-opacity=".502" d="M190.633 148.072l34.04-1.24-30.638 27.458-6.09-14.68M46.545 152.356L23.525 184l7.7-19.975-13.648-26.27"/><path fill="#566863" fill-opacity=".502" d="M152.78 92.603l-43.07 1.968 18.046 23.395 17.878-14.272"/><path fill="#615c58" fill-opacity=".502" d="M136 69h21v2h-21z"/><ellipse fill="#957f66" fill-opacity=".502" rx="1" ry="1" transform="rotate(91.154 65.864 126.71) scale(1 33.0173)"/><path fill="#010301" fill-opacity=".502" d="M192 127l19 17-26-10"/><path fill="#1a2121" fill-opacity=".502" d="M94 144l-12 7 6 14"/><path fill="#0e1412" fill-opacity=".502" d="M83.887 111.057l31.182 8.243L82 125.264l83.6 29.556"/><path fill="#364643" fill-opacity=".502" d="M249.395 109.65l11.694-45.658 7.672 77.57-33.47-32.586"/><path fill="#000710" fill-opacity=".502" d="M215 131h10v2h-10z"/><ellipse fill="#010606" fill-opacity=".502" rx="1" ry="1" transform="rotate(-149.508 90.14 32.187) scale(4.21317 4.7892)"/><path fill="#445452" fill-opacity=".502" d="M123.302 115.864l17.353 15.352-9.783-48.6L135.508 103"/><path fill="#576865" fill-opacity=".502" d="M185 77h58v10h-58z"/><ellipse fill="#c79d76" fill-opacity=".502" cx="44" cy="60" rx="4" ry="4"/><path fill="#344746" fill-opacity=".502" d="M2 115l13 5-17 5"/><ellipse fill="#3f5151" fill-opacity=".502" cx="43" cy="122" rx="6" ry="5"/><ellipse fill="#9d9a7f" fill-opacity=".502" rx="1" ry="1" transform="rotate(-166.817 4.112 24.34) scale(30.38313 6.03066)"/><path fill="#394949" fill-opacity=".502" d="M146.87 128.482l-28.365-6.03.624-2.934 28.365 6.03z"/><path fill="#212a28" fill-opacity=".502" d="M82 137l-16 6-3-5"/><path fill="#050704" fill-opacity=".502" d="M89.806 112.833l4.962 17.302-10.574 3.032-4.962-17.302z"/><path fill="#55635d" fill-opacity=".502" d="M206.683 113.013L191.28 97.72l15.078-12.878-31.25 17.61"/><ellipse fill="#889997" fill-opacity=".502" rx="1" ry="1" transform="rotate(-168.12 101.486 3.392) scale(37.16926 7.93893)"/><path fill="#647168" fill-opacity=".502" d="M73 107l33-18-45 5"/><path fill="#080d0c" fill-opacity=".502" d="M58.99 135.807L46.7 127.204l6.31-9.01 12.286 8.602z"/><path fill="#060a06" fill-opacity=".502" d="M88.14 166.926l-41.445 2.398 55.196-28.627-61.954 8.18"/><path fill="#314142" fill-opacity=".502" d="M186 128l-15-10 28 6"/><path fill="#0b1006" fill-opacity=".502" d="M45 184l-28-43-33 10"/><path fill="#0c1512" fill-opacity=".502" d="M217.013 153.56l29.516-4.5-67.364 29.685 5.802 5.255"/><ellipse fill="#2c2f2d" fill-opacity=".502" cx="121" cy="71" rx="5" ry="3"/><path fill="#4d5d56" fill-opacity=".502" d="M17.037 124.565L1.743 99.275l45.972 19.705-12.27-11.957"/><path fill="#425452" fill-opacity=".502" d="M217 90l-7 21 19 6"/><ellipse fill-opacity=".502" cx="30" cy="124" rx="7" ry="3"/><path fill="#97a08f" fill-opacity=".502" d="M-7.706 48.192L-9.1 32.252l50.806-4.444 1.394 15.94z"/><path fill="#070a08" fill-opacity=".502" d="M160.325 151.687l5.324-21.526 22.667 10.87-40.15-13.717"/><ellipse fill="#10110f" fill-opacity=".502" rx="1" ry="1" transform="rotate(-14.384 581.31 -744.51) scale(3.22452 8.30285)"/><path fill="#384949" fill-opacity=".502" d="M109 118h10v8h-10z"/><ellipse fill="#98a397" fill-opacity=".502" rx="1" ry="1" transform="rotate(87.52 71.06 116.916) scale(6.5276 34.1414)"/><ellipse fill="#0f1513" fill-opacity=".502" rx="1" ry="1" transform="matrix(2.3646 -8.38438 21.49087 6.06094 38.393 134.428)"/><path fill="#52635e" fill-opacity=".502" d="M72 101l7 13 17-10"/><path fill="#6b776f" fill-opacity=".502" d="M96 76l57 16-42 1"/><ellipse fill="#354a52" fill-opacity=".502" cx="202" cy="75" rx="26" ry="1"/><path fill="#000002" fill-opacity=".502" d="M57.332 106.547l-2.644-18.815 1.98-.28 2.644 18.816z"/><path fill="#151b18" fill-opacity=".502" d="M60 119l-6 6 25-1"/><path fill="#263639" fill-opacity=".502" d="M219 119h26v6h-26z"/><path fill="#050c0a" fill-opacity=".502" d="M20.907 136.097L1.3 128.57l1.793-4.667L22.7 131.43z"/><path fill="#0e1412" fill-opacity=".502" d="M65.377 119.543l5.743 16.04L55.17 105.8l20.564 26.262"/><path fill="#495c5a" fill-opacity=".502" d="M55 115h6v5h-6z"/><path fill="#445654" fill-opacity=".502" d="M241 76h15v33h-15z"/><path fill="#0c0e0b" fill-opacity=".502" d="M112 102l-20 25 16-2"/><path fill="#3d4e4d" fill-opacity=".502" d="M143 112h8v13h-8z"/><path fill="#5f6d66" fill-opacity=".502" d="M110.602 107.86l7.647-14.577-25.416-21.158 38.672 31.965"/><path fill="#232a29" fill-opacity=".502" d="M217.07 73.213L271 78.667l-45.125-9.26-37.2-.09"/><ellipse fill="#1f3339" fill-opacity=".502" cx="181" cy="115" rx="10" ry="1"/><ellipse fill="#486166" fill-opacity=".502" cx="50" cy="73" rx="73" ry="1"/><path fill="#405250" fill-opacity=".502" d="M186 110l-25-11 23 3"/><ellipse fill="#1d2d34" fill-opacity=".502" cx="188" cy="119" rx="11" ry="1"/><path fill="#000304" fill-opacity=".502" d="M160.033 96.868l-2.19 13.828-9.876-1.564 2.19-13.828z"/><path fill="#97896d" fill-opacity=".502" d="M36.734 60.157l3.254-.803L16.762 67.1-16 56.273"/><ellipse fill="#766c61" fill-opacity=".502" cx="109" cy="67" rx="18" ry="1"/><ellipse fill="#76685e" fill-opacity=".502" cx="22" cy="67" rx="37" ry="2"/><path fill="#1e2824" fill-opacity=".502" d="M193.364 137.32l.262 4.993-6.99.367-.262-4.993z"/><path fill="#212d2c" fill-opacity=".502" d="M89 164l-22 20 61-13"/><path fill="#161c16" fill-opacity=".502" d="M112 99l-7-4-7 8"/><path fill="#586760" fill-opacity=".502" d="M102.392 114.426l-5.064-11.812 8.013-7.187-33.29 8.794"/><ellipse fill="#5c6a63" fill-opacity=".502" cx="67" cy="108" rx="4" ry="5"/><ellipse fill="#7a8c8c" fill-opacity=".502" rx="1" ry="1" transform="matrix(24.78053 8.33165 -2.7905 8.29968 255 25.213)"/><path fill="#57554f" fill-opacity=".502" d="M151 68h32v2h-32z"/><path fill="#929885" fill-opacity=".502" d="M230.53 57.99l-2.604-14.77 29.544-5.21 2.604 14.77z"/><path stroke="#2b3c3f" stroke-opacity=".502" fill="none" d="M53.7 115.92q-.416-2.098-23.09-3.115" stroke-width=".5"/><path fill="#17201f" fill-opacity=".502" d="M106.843 156.86l16.618-9.212 9.697 17.493-16.618 9.212z"/><path fill="#394c4c" fill-opacity=".502" d="M-16 106.937l45.39 10.554 24.798 2.35-22.38 1.196"/><path fill="#5d6a5b" fill-opacity=".502" d="M-9.974 122.988l-.035-1 27.984-.976.035 1z"/><path fill="#141b18" fill-opacity=".502" d="M150 145h38v13h-38z"/><path fill="#938566" fill-opacity=".502" d="M215.125 61.988l30.473 5.88 13.73-.708 1.838-9.116"/><path fill="#566661" fill-opacity=".502" d="M110.957 108.623l13.998-.245.088 5-13.998.244z"/><ellipse fill="#3f535a" fill-opacity=".502" cx="27" cy="72" rx="26" ry="1"/><path fill="#8d9e98" fill-opacity=".502" d="M54 30L31 17l-41 16"/><path fill="#50605b" fill-opacity=".502" d="M139 102l12 13-18-3"/><path fill="#a9a68a" fill-opacity=".502" d="M137.67 58.514l48.477-3.775-47.752-9.454L46.31 55.34"/><path fill="#606e69" fill-opacity=".502" d="M161.98 94.577l45.567-1.87-8.56-15.717-52.055 3.747"/><path fill="#102026" fill-opacity=".502" d="M231.866 134.065l-29.836-3.136.104-.995 29.836 3.136z"/><ellipse fill="#233427" fill-opacity=".502" cx="9" cy="135" rx="2" ry="4"/><path fill="#080e10" fill-opacity=".502" d="M60.912 99.036l3.17 25.806-.994.122-3.17-25.806z"/><path fill="#3b4b47" fill-opacity=".502" d="M208 133h14v2h-14z"/><path fill="#2b3b3b" fill-opacity=".502" d="M233.686 122.45l14.506 15.762-22.84.255 37.538-37.32"/><ellipse fill-opacity=".502" cx="57" cy="87" rx="2" ry="2"/><ellipse fill="#1f1a0f" fill-opacity=".502" cx="206" cy="116" rx="6" ry="6"/><path fill="#51615b" fill-opacity=".502" d="M160 106h20v7h-20z"/><path fill="#a39d80" fill-opacity=".502" d="M169.294 64.546L155.087 52.69l83.06 1.077-44.777 4.293"/><path fill="#687366" fill-opacity=".502" d="M51.692 115.944l-4.603 1.953-.782-1.84 4.603-1.954z"/><path fill="#192020" fill-opacity=".502" d="M37 164l13-5-6 9"/><path fill="#5c5953" fill-opacity=".502" d="M169 66h60v2h-60z"/><path fill="#030a0a" fill-opacity=".502" d="M271 148.943l-28.4-13.756 13.97 3.628-28.486 10.273"/><path fill="#0a0f0c" fill-opacity=".502" d="M117.254 142.98l-34.167-30.815-10.78 25.268 32.61-23.695"/><path stroke="#091113" stroke-opacity=".502" fill="none" d="M246.907 172.744q-44.25-52.783-65.088-49.184" stroke-width=".5"/><path fill="#4d5f5e" fill-opacity=".502" d="M126 95h25v2h-25z"/><path fill="#304143" fill-opacity=".502" d="M197 113h2v20h-2z"/><ellipse fill="#4b5954" fill-opacity=".502" cx="212" cy="128" rx="2" ry="2"/><ellipse fill="#010d16" fill-opacity=".502" rx="1" ry="1" transform="rotate(81.912 29.373 181.396) scale(2.72433 5.38967)"/><path fill-opacity=".502" d="M92 139l17 1-16 14"/><ellipse fill="#203236" fill-opacity=".502" cx="191" cy="120" rx="9" ry="1"/><path fill="#2e3f3d" fill-opacity=".502" d="M219 134h37v3h-37z"/><path fill="#4e5d55" fill-opacity=".502" d="M158.07 124.085l14.184 4.884-.325.945-14.184-4.884z"/><path fill="#282b2a" fill-opacity=".502" d="M131 71h47v3h-47z"/><path fill="#55645b" fill-opacity=".502" d="M13 113l26 2-48-19"/><ellipse fill="#5c706d" fill-opacity=".502" cx="8" cy="75" rx="43" ry="2"/><path fill="#04090c" fill-opacity=".502" d="M157.657 123.24l-4.5-31.24 1.03-2.256 3.238 1.157"/><path fill="#010606" fill-opacity=".502" d="M177.922 137.015l5.447-8.387 6.708 4.357-5.447 8.387z"/><path fill="#141c15" fill-opacity=".502" d="M35.3 139.416l-52.027 10.113-.572-2.946 52.027-10.113z"/><path fill="#000202" fill-opacity=".502" d="M151 158l2 10-9 2"/><path fill="#00050a" fill-opacity=".502" d="M155.97 135.666l-.98.19-4.96-25.522.98-.19z"/><path fill="#141918" fill-opacity=".502" d="M122.41 140.98l-18.348-7.088-6.88 5.63 55.074-11.923"/><path fill="#82969d" fill-opacity=".502" d="M51.705 11.773L169.44 22.957l-.13-12.572L142.04 8.6"/><path stroke="#141d1d" stroke-opacity=".502" fill="none" d="M105.37 121.797Q196.81 132.1 186.872 184" stroke-width=".5"/><path fill="#616f65" fill-opacity=".502" d="M-4.453 84.777L50.324 96.42l-1.87 8.803L-6.325 93.58z"/><path fill="#090d0c" fill-opacity=".502" d="M217.03 134.853l-9.637 17.783-20.024-17.34 38.978 7.775"/><path fill="#000101" fill-opacity=".502" d="M132.013 156.666l9.068-6.05-24.45-6.18 6.934 4.905"/><path fill="#1d2528" fill-opacity=".502" d="M186 67l10 3-25 4"/><path fill="#6e786e" fill-opacity=".502" d="M55 91l-27-7 22-6"/><path fill="#627068" fill-opacity=".502" d="M98.673 105.425l8.854-19.88-6.11 6.188-31.927-1.35"/><path fill="#646e61" fill-opacity=".502" d="M109.387 121.44l.313-1.975 6.913 1.095-.313 1.975z"/><path fill="#000006" fill-opacity=".502" d="M53.516 104.484l3.66-8.222 7.308 3.254-3.66 8.222z"/><path fill="#2e4146" fill-opacity=".502" d="M51.965 114.897l-.173.985-15.757-2.78.173-.984z"/><path fill="#2d3d3e" fill-opacity=".502" d="M202.615 136.52l-.94-.342 1.71-4.698.94.342z"/><path fill="#6a756a" fill-opacity=".502" d="M87.053 103.164l-27.806-14.87 4.585 10.19 17.09 5.84"/><path stroke="#111a1c" stroke-opacity=".502" fill="none" d="M271 152.962q-40.85-14.82-115.287-30.398" stroke-width=".5"/><path fill="#050a0c" fill-opacity=".502" d="M55.602 97.973l-1.534-10.38 8.127 10.547-9.9 27.25"/><path fill="#0a0e0b" fill-opacity=".502" d="M174.245 131.173l-21.79-2.398 20.37 28.626-4.346-26.142"/><path fill="#161d1a" fill-opacity=".502" d="M188 158l-3-18-16-9"/><path fill="#0d120d" fill-opacity=".502" d="M90 145l-25 10-7-14"/><path fill-opacity=".502" d="M205 106h5v4h-5z"/><ellipse fill="#0d1614" fill-opacity=".502" rx="1" ry="1" transform="matrix(.50494 -2.52076 49.88802 9.99326 167.732 168)"/><path fill="#4e5e57" fill-opacity=".502" d="M212.464 111.758l-2.978.365-1.95-15.88 2.978-.366z"/><path fill="#010300" fill-opacity=".502" d="M19.25 159.284l48.965-13.624-50.948-.384 69.904 12.87"/><path fill="#8e806c" fill-opacity=".502" d="M124.396 68.557l-23.903-2.717 18.104-2.378 22.877 6.28"/><path fill="#020807" fill-opacity=".502" d="M116.69 132.418l7.935-5.687 14.74 1.173-9.813 5.513"/><path fill="#526057" fill-opacity=".502" d="M133.652 124.678l-.14-.99 16.836-2.366.14.99z"/><path fill="#1a231e" fill-opacity=".502" d="M229.028 157.004l-8.57-5.15.514-.858 8.57 5.15z"/><ellipse fill="#9da79d" fill-opacity=".502" rx="1" ry="1" transform="matrix(-.28947 5.549 -51.48343 -2.68566 106.3 37.596)"/><ellipse fill="#35312c" fill-opacity=".502" cx="118" cy="69" rx="2" ry="2"/><ellipse fill="#4d5d59" fill-opacity=".502" rx="1" ry="1" transform="rotate(-14.572 480.077 -224.124) scale(8.2084 7.38677)"/><path fill-opacity=".502" d="M22 119h3v6h-3zM187 143l14 27-5-27"/><path fill="#5d5850" fill-opacity=".502" d="M174 65h40v3h-40z"/><path stroke="#344343" stroke-opacity=".502" fill="none" d="M136.89 112.65q14.786-11.328 37.185 3.474" stroke-width=".5"/><path fill="#434441" fill-opacity=".502" d="M247.49 68.718l-24.997-.436.018-1 24.997.436z"/><path fill="#a4a58d" fill-opacity=".502" d="M63.848 61.5l-16.05-8.915 36-5.934-63.27-6.654"/><path fill="#586761" fill-opacity=".502" d="M194 103l-23 1 18-14"/><ellipse fill="#3b4c50" fill-opacity=".502" cx="164" cy="74" rx="25" ry="1"/><path fill="#646e62" fill-opacity=".502" d="M38 115h11v2H38z"/><path fill="#000100" fill-opacity=".502" d="M75 134l-16 4 2-10"/><path fill="#5e6c65" fill-opacity=".502" d="M123.232 109.28l47.084-34.195-32.732 23.438-29.26-4.632"/><path fill="#647268" fill-opacity=".502" d="M92 107l-18-3-15-13"/><path fill="#080c05" fill-opacity=".502" d="M100 107v-6l3-2"/><path fill="#4c5a56" fill-opacity=".502" d="M193.65 107.158l7.192-3.507 3.507 7.192-7.192 3.507z"/><path fill="#040808" fill-opacity=".502" d="M148.04 125.336l9.455-3.256 8.465 24.584-9.455 3.256z"/><path fill="#3f504c" fill-opacity=".502" d="M217.92 112.48l14.855 2.088-.696 4.95-14.855-2.086z"/><path fill="#30403f" fill-opacity=".502" d="M255.382 122.574l-1.816 3.564-24.948-12.712 1.816-3.564z"/><path fill="#2b4047" fill-opacity=".502" d="M66 113h5v2h-5z"/><path fill="#556158" fill-opacity=".502" d="M194.99 117.744l-27.997-.488.018-1 27.997.488z"/><path fill="#455551" fill-opacity=".502" d="M170 125l-2 4-7-4"/><ellipse fill="#d2a072" fill-opacity=".502" cx="204" cy="61" rx="2" ry="2"/><ellipse fill="#3e4d49" fill-opacity=".502" cx="230" cy="126" rx="8" ry="2"/><path fill="#101715" fill-opacity=".502" d="M18 135l1-12 32 19"/><path fill="#b49072" fill-opacity=".502" d="M30 62h22v2H30z"/><path fill="#535e55" fill-opacity=".502" d="M184.524 121.25l.19-.98 12.762 2.48-.19.98z"/><path fill="#6f7b73" fill-opacity=".502" d="M104.374 94.658l-45.382-16.6 63.52 1.03-37.36 14.41"/><ellipse fill="#728990" fill-opacity=".502" rx="1" ry="1" transform="matrix(.85027 4.40945 -24.60462 4.7445 14.98 0)"/><ellipse fill="#090f13" fill-opacity=".502" rx="1" ry="1" transform="rotate(-147.61 41.728 39.717) scale(2.80684 5.0324)"/><path fill="#4b5b56" fill-opacity=".502" d="M224 95h10v15h-10z"/><path fill="#000301" fill-opacity=".502" d="M204 153l41-7-20-3"/><path fill="#050b0a" fill-opacity=".502" d="M216.273 184l-37.012-25.405 7.926 16.184L271 139.764"/><path fill="#4a4744" fill-opacity=".502" d="M69 71h39v2H69z"/><path fill="#4a5e5b" fill-opacity=".502" d="M228 76h28v18h-28z"/><path fill="#44534d" fill-opacity=".502" d="M244 115l8 3-7-11"/><ellipse fill="#55655c" fill-opacity=".502" cx="43" cy="120" rx="7" ry="1"/><path fill="#253436" fill-opacity=".502" d="M50.335 119.814l10.095-19.612-9.252 18.077-16.99-.644"/><path fill="#6c776c" fill-opacity=".502" d="M57 84L29 96l1-13"/></g></svg>