<svg xmlns="http://www.w3.org/2000/svg" width="1024" height="680"><path fill="#10110e" d="M0 0h1024v680H0z"/><g transform="matrix(4 0 0 4 2 2)" fill-opacity=".502"><ellipse fill="#bfb9a7" cx="128" cy="80" rx="32" ry="62"/><ellipse cx="126" cy="117" rx="9" ry="35"/><ellipse fill="#fff" cx="107" cy="104" rx="6" ry="19"/><ellipse cx="184" cy="73" rx="36" ry="110"/><ellipse cx="72" cy="79" rx="30" ry="255"/><ellipse fill="#fff" cx="145" cy="125" rx="7" ry="10"/><ellipse fill="#ffffec" cx="127" cy="26" rx="14" ry="6"/><ellipse cx="30" cy="81" rx="74" ry="97"/><ellipse cx="138" cy="108" rx="26" ry="8"/><ellipse fill="#d4dedc" cx="137" cy="85" rx="7" ry="14"/><ellipse fill="#d4d3c5" cx="114" cy="82" rx="7" ry="14"/><ellipse cx="218" cy="48" rx="51" ry="246"/><ellipse fill="#fff" cx="115" cy="127" rx="4" ry="9"/><ellipse fill="#efffff" cx="143" cy="95" rx="14" ry="3"/><ellipse cx="125" cy="127" rx="7" ry="44"/><ellipse fill="#fff" cx="148" cy="120" rx="7" ry="5"/><ellipse fill="#9d8768" cx="125" cy="42" rx="25" ry="16"/><ellipse fill="#1e180c" cx="153" cy="63" rx="20" ry="13"/><ellipse fill="#f4cf95" cx="120" cy="73" rx="16" ry="5"/><ellipse fill="#fff" cx="140" cy="117" rx="2" ry="10"/><ellipse fill="#fff" cx="107" cy="112" rx="4" ry="13"/><ellipse cx="167" cy="6" rx="255" ry="14"/><ellipse fill="#fff" cx="136" cy="133" rx="2" ry="7"/><ellipse cx="38" cy="9" rx="51" ry="247"/><ellipse fill="#fff" cx="115" cy="124" rx="3" ry="10"/><ellipse fill="#252e2f" cx="155" cy="88" rx="18" ry="5"/><ellipse fill="#745f46" cx="129" cy="78" rx="27" ry="3"/><ellipse cx="241" cy="63" rx="75" ry="116"/><ellipse fill="#000604" cx="165" cy="153" rx="25" ry="31"/><ellipse fill="#02090a" cx="94" cy="88" rx="15" ry="7"/><ellipse cx="126" cy="131" rx="8" ry="38"/><ellipse fill="#050a08" cx="145" cy="104" rx="32" ry="7"/><ellipse fill="#fff" cx="138" cy="82" rx="16" ry="1"/><ellipse fill="#ccbb90" cx="126" cy="55" rx="12" ry="5"/><ellipse fill="#fff" cx="111" cy="30" rx="3" ry="4"/><ellipse fill="#53453f" cx="126" cy="39" rx="11" ry="10"/><ellipse fill="#f4ffe3" cx="127" cy="25" rx="9" ry="6"/><ellipse cx="110" cy="137" rx="2" ry="21"/><ellipse cx="99" cy="2" rx="30" ry="27"/><ellipse fill="#958770" cx="142" cy="38" rx="10" ry="11"/><ellipse fill="#f3fbf8" cx="146" cy="125" rx="6" ry="6"/><ellipse fill="#101818" cx="135" cy="122" rx="10" ry="3"/><ellipse fill="#fff" cx="139" cy="115" rx="2" ry="5"/><ellipse cx="113" cy="116" rx="2" ry="4"/><ellipse fill="#bbdcf4" cx="113" cy="91" rx="6" ry="6"/><ellipse fill="#6c5a43" cx="109" cy="54" rx="11" ry="17"/><ellipse fill="#3a3429" cx="152" cy="55" rx="11" ry="20"/><ellipse fill="#695c51" cx="130" cy="35" rx="10" ry="9"/><ellipse fill="#ecffec" cx="109" cy="104" rx="5" ry="7"/><ellipse fill="#e4d7a6" cx="136" cy="50" rx="4" ry="5"/><ellipse fill="#c0ccd2" cx="130" cy="81" rx="24" ry="1"/><ellipse fill="#fff" cx="107" cy="114" rx="3" ry="11"/><ellipse fill="#fff" cx="150" cy="121" rx="4" ry="4"/><ellipse fill="#efffff" cx="133" cy="90" rx="2" ry="9"/><ellipse fill="#4e636c" cx="127" cy="97" rx="32" ry="1"/><ellipse cx="123" cy="88" rx="5" ry="3"/><ellipse fill="#000507" cx="139" cy="135" rx="1" ry="12"/><ellipse fill="#423422" cx="122" cy="64" rx="26" ry="4"/><ellipse cx="130" cy="117" rx="7" ry="10"/><ellipse fill="#040806" cx="171" cy="147" rx="28" ry="28"/><ellipse fill="#0b1312" cx="108" cy="144" rx="13" ry="11"/><ellipse fill="#b4c9d2" cx="115" cy="95" rx="6" ry="2"/><ellipse cx="142" cy="84" rx="4" ry="1"/><ellipse fill="#c6bc91" cx="109" cy="38" rx="5" ry="6"/><ellipse fill="#262b27" cx="160" cy="83" rx="6" ry="27"/><ellipse fill="#63635a" cx="111" cy="81" rx="6" ry="5"/><ellipse fill="#fff" cx="135" cy="128" rx="1" ry="7"/><ellipse fill="#dddfbb" cx="131" cy="26" rx="13" ry="4"/><ellipse fill="#070c08" cx="169" cy="114" rx="30" ry="3"/><ellipse fill="#fff" cx="146" cy="124" rx="2" ry="10"/><ellipse fill="#e2f8ff" cx="137" cy="93" rx="7" ry="2"/><ellipse fill="#fff" cx="143" cy="130" rx="3" ry="6"/><ellipse fill="#fff" cx="146" cy="119" rx="8" ry="3"/><ellipse fill="#060a08" cx="154" cy="159" rx="19" ry="29"/><ellipse fill="#829c90" cx="105" cy="96" rx="5" ry="9"/><ellipse fill="#f1fdec" cx="129" cy="23" rx="8" ry="4"/><ellipse fill="azure" cx="139" cy="136" rx="3" ry="2"/><ellipse fill="#010707" cx="138" cy="143" rx="1" ry="26"/><ellipse cx="29" cy="61" rx="70" ry="96"/><ellipse fill="#616d71" cx="140" cy="98" rx="12" ry="2"/><ellipse fill="#f1fbf0" cx="140" cy="116" rx="1" ry="10"/><ellipse fill="#bbb096" cx="144" cy="32" rx="5" ry="4"/><ellipse cx="128" cy="88" rx="4" ry="4"/><ellipse fill="#f5fef0" cx="106" cy="112" rx="4" ry="13"/><ellipse fill="#5b5147" cx="127" cy="43" rx="4" ry="11"/><ellipse cx="125" cy="108" rx="12" ry="9"/><ellipse fill="#746456" cx="124" cy="35" rx="14" ry="7"/><ellipse fill="#cbbf9c" cx="119" cy="55" rx="4" ry="5"/><ellipse fill="#010100" cx="88" cy="11" rx="25" ry="32"/><ellipse fill="#5c6a71" cx="154" cy="84" rx="7" ry="3"/><ellipse cx="158" cy="3" rx="35" ry="23"/><ellipse fill="#09100d" cx="89" cy="125" rx="14" ry="30"/><ellipse fill="#463936" cx="113" cy="48" rx="6" ry="6"/><ellipse fill="#1d201c" cx="103" cy="83" rx="2" ry="11"/><ellipse fill="#010200" cx="152" cy="105" rx="10" ry="7"/><ellipse fill="#c0ac8d" cx="126" cy="73" rx="8" ry="6"/><ellipse fill="#3a312b" cx="143" cy="60" rx="12" ry="7"/><ellipse cx="241" cy="84" rx="36" ry="127"/><ellipse cx="125" cy="92" rx="5" ry="10"/><ellipse fill="#130b04" cx="144" cy="90" rx="5" ry="2"/><ellipse fill="#a09174" cx="142" cy="44" rx="7" ry="6"/><ellipse fill="#000100" cx="139" cy="153" rx="10" ry="15"/><ellipse fill="#818470" cx="143" cy="109" rx="3" ry="4"/><ellipse fill="#fff" cx="135" cy="138" rx="2" ry="2"/><ellipse fill="#f7fcf8" cx="109" cy="108" rx="4" ry="9"/><ellipse fill="#f5ffff" cx="132" cy="83" rx="4" ry="2"/><ellipse fill="#030200" cx="100" cy="19" rx="20" ry="8"/><ellipse fill="#dceefa" cx="141" cy="95" rx="11" ry="2"/><ellipse fill="#a08b71" cx="132" cy="28" rx="4" ry="5"/><ellipse fill="#736a5b" cx="132" cy="79" rx="26" ry="2"/><ellipse fill="#fff" cx="107" cy="121" rx="1" ry="7"/><ellipse fill="#616d71" cx="161" cy="147" rx="2" ry="2"/><ellipse fill="#fff" cx="138" cy="112" rx="1" ry="1"/><ellipse fill="#fff" cx="136" cy="129" rx="1" ry="6"/><ellipse fill="#a8bda4" cx="105" cy="99" rx="4" ry="6"/><ellipse fill="#fff" cx="116" cy="129" rx="2" ry="7"/><ellipse fill="#9e8863" cx="133" cy="74" rx="9" ry="5"/><ellipse fill="#ceb688" cx="109" cy="54" rx="3" ry="2"/><ellipse fill="#1f2929" cx="118" cy="140" rx="1" ry="17"/><ellipse fill="#15201e" cx="111" cy="130" rx="1" ry="14"/><ellipse cx="128" cy="118" rx="10" ry="6"/><ellipse cx="128" cy="119" rx="7" ry="18"/><ellipse fill="#cebf8d" cx="113" cy="71" rx="12" ry="2"/><ellipse fill="#5b5349" cx="129" cy="44" rx="6" ry="8"/><ellipse fill="#354745" cx="141" cy="124" rx="3" ry="1"/><ellipse fill="#716554" cx="147" cy="40" rx="7" ry="4"/><ellipse cx="114" cy="113" rx="1" ry="5"/><ellipse fill="#feffff" cx="113" cy="131" rx="2" ry="3"/><ellipse cx="148" cy="105" rx="6" ry="5"/><ellipse fill="#b1c2bf" cx="126" cy="138" rx="1" ry="3"/><ellipse fill="#162020" cx="169" cy="96" rx="10" ry="6"/><ellipse fill="#030300" cx="115" cy="10" rx="16" ry="12"/><ellipse fill="#a9c2d2" cx="137" cy="87" rx="4" ry="2"/><ellipse fill="#e8f6f6" cx="116" cy="116" rx="1" ry="4"/><ellipse fill="#342818" cx="141" cy="68" rx="11" ry="3"/><ellipse fill="#eadba9" cx="107" cy="74" rx="3" ry="3"/><ellipse fill="#4a5b69" cx="107" cy="88" rx="4" ry="4"/><ellipse fill="#bdb898" cx="108" cy="38" rx="2" ry="8"/><ellipse fill="#121818" cx="153" cy="169" rx="12" ry="14"/><ellipse fill="#fff" cx="116" cy="121" rx="2" ry="2"/><ellipse fill="#fff" cx="137" cy="137" rx="2" ry="1"/><ellipse fill="#9f8e6d" cx="113" cy="61" rx="2" ry="6"/><ellipse cx="122" cy="155" rx="4" ry="46"/><ellipse fill="#fff" cx="114" cy="124" rx="3" ry="4"/><ellipse fill="#fff" cx="139" cy="117" rx="1" ry="6"/><ellipse fill="#f4ffff" cx="135" cy="133" rx="2" ry="4"/><ellipse fill="#2c332d" cx="100" cy="104" rx="2" ry="17"/><ellipse cx="139" cy="131" rx="1" ry="5"/><ellipse cx="129" cy="125" rx="5" ry="14"/><ellipse fill="#effff1" cx="114" cy="28" rx="2" ry="2"/><ellipse fill="#080f0d" cx="107" cy="151" rx="13" ry="20"/><ellipse fill="#948061" cx="112" cy="38" rx="6" ry="3"/><ellipse fill="#a4bcc7" cx="119" cy="98" rx="2" ry="1"/><ellipse fill="#4e4131" cx="106" cy="64" rx="8" ry="7"/><ellipse fill="#c8dbe6" cx="117" cy="90" rx="2" ry="6"/><ellipse fill="#263131" cx="95" cy="100" rx="3" ry="6"/><ellipse fill="#030200" cx="163" cy="6" rx="30" ry="26"/><ellipse fill="#7a6c52" cx="129" cy="62" rx="4" ry="6"/><ellipse fill="#a1a9aa" cx="107" cy="82" rx="3" ry="2"/><ellipse fill="#d3c59d" cx="122" cy="54" rx="3" ry="6"/><ellipse fill="#020200" cx="91" cy="8" rx="26" ry="30"/><ellipse fill="#f9ffee" cx="110" cy="32" rx="2" ry="3"/><ellipse fill="#10120a" cx="157" cy="112" rx="3" ry="15"/><ellipse cx="25" cy="41" rx="66" ry="161"/><ellipse fill="#d4e2e6" cx="139" cy="96" rx="10" ry="1"/><ellipse fill="#93826e" cx="105" cy="45" rx="3" ry="7"/><ellipse fill="#010100" cx="163" cy="135" rx="19" ry="6"/><ellipse cx="122" cy="89" rx="4" ry="3"/><ellipse fill="#222420" cx="133" cy="99" rx="5" ry="2"/><ellipse fill="#273335" cx="97" cy="98" rx="6" ry="1"/><ellipse fill="#fff" cx="123" cy="24" rx="4" ry="3"/><ellipse fill="#000101" cx="128" cy="130" rx="6" ry="7"/><ellipse fill="#cfd8dc" cx="140" cy="100" rx="1" ry="1"/><ellipse fill="#010100" cx="84" cy="71" rx="16" ry="33"/><ellipse fill="#d9d0a1" cx="128" cy="70" rx="2" ry="4"/><ellipse fill="#c4ab88" cx="130" cy="74" rx="15" ry="1"/><ellipse fill="#393f3e" cx="155" cy="87" rx="14" ry="2"/><ellipse fill="#040502" cx="170" cy="65" rx="8" ry="25"/><ellipse fill="#e0fbdc" cx="141" cy="111" rx="1" ry="2"/><ellipse fill="#d0d393" cx="113" cy="40" rx="2" ry="2"/><ellipse cx="110" cy="128" rx="2" ry="3"/><ellipse fill="#8595a1" cx="113" cy="96" rx="8" ry="1"/><ellipse fill="#a29375" cx="130" cy="55" rx="11" ry="2"/><ellipse fill="#fff" cx="148" cy="125" rx="3" ry="4"/><ellipse fill="#c9b48c" cx="139" cy="43" rx="3" ry="4"/><ellipse fill="#e0eef2" cx="116" cy="90" rx="3" ry="3"/><ellipse fill="#7b8f78" cx="147" cy="115" rx="2" ry="2"/><ellipse fill="#fff" cx="142" cy="119" rx="3" ry="3"/><ellipse fill="#576973" cx="156" cy="94" rx="5" ry="3"/><ellipse fill="#141916" cx="102" cy="137" rx="4" ry="18"/><ellipse fill="#090e0c" cx="165" cy="164" rx="5" ry="28"/><ellipse fill="#bfd0be" cx="107" cy="99" rx="3" ry="7"/><ellipse fill="#94aab6" cx="148" cy="96" rx="3" ry="3"/><ellipse fill="#0a0800" cx="159" cy="91" rx="8" ry="2"/><ellipse fill="#949798" cx="120" cy="80" rx="8" ry="1"/><ellipse fill="#fafdf7" cx="151" cy="122" rx="3" ry="3"/><ellipse fill="#e1eef1" cx="134" cy="92" rx="3" ry="4"/><ellipse cx="127" cy="86" rx="3" ry="3"/><ellipse fill="#bbc5ca" cx="134" cy="81" rx="13" ry="1"/><ellipse cx="111" cy="117" rx="2" ry="1"/><ellipse fill="#a1ce6a" cx="118" cy="27" rx="3" ry="2"/><ellipse fill="#f6fffc" cx="115" cy="122" rx="3" ry="4"/><ellipse fill="#020402" cx="176" cy="131" rx="27" ry="11"/><ellipse fill="#fff" cx="106" cy="109" rx="4" ry="4"/><ellipse fill="#3f3e2e" cx="101" cy="71" rx="1" ry="5"/><ellipse fill="#91a370" cx="107" cy="103" rx="7" ry="1"/><ellipse fill="#232218" cx="159" cy="66" rx="5" ry="17"/><ellipse fill="#2a3333" cx="110" cy="151" rx="6" ry="2"/><ellipse fill="#edfdef" cx="125" cy="25" rx="2" ry="5"/><ellipse fill="#f5e6b8" cx="136" cy="51" rx="4" ry="2"/><ellipse fill="#282017" cx="146" cy="60" rx="3" ry="9"/><ellipse fill="#171f19" cx="118" cy="118" rx="2" ry="1"/><ellipse fill="#050502" cx="97" cy="25" rx="8" ry="19"/><ellipse fill="#202e2e" cx="134" cy="168" rx="9" ry="2"/><ellipse fill="#000705" cx="111" cy="120" rx="1" ry="5"/><ellipse fill="#b5a577" cx="104" cy="70" rx="2" ry="2"/><ellipse fill="#000202" cx="144" cy="101" rx="4" ry="2"/><ellipse fill="#040604" cx="143" cy="150" rx="6" ry="14"/><ellipse fill="#0a0c07" cx="157" cy="122" rx="3" ry="26"/><ellipse fill="#f2f6a8" cx="144" cy="35" rx="2" ry="2"/><ellipse fill="#061310" cx="139" cy="130" rx="1" ry="6"/><ellipse cx="119" cy="111" rx="6" ry="3"/><ellipse fill="#554d3d" cx="114" cy="99" rx="2" ry="1"/><ellipse fill="#fff" cx="109" cy="108" rx="3" ry="6"/><ellipse fill="#333e40" cx="164" cy="145" rx="3" ry="2"/><ellipse fill="#ffffe2" cx="119" cy="53" rx="2" ry="1"/><ellipse fill="#948265" cx="115" cy="57" rx="3" ry="3"/><ellipse fill="#e5d29e" cx="102" cy="51" rx="1" ry="2"/><ellipse fill="#2e2c25" cx="149" cy="84" rx="9" ry="1"/><ellipse fill="#d0be92" cx="125" cy="58" rx="3" ry="3"/><ellipse fill="#fff" cx="134" cy="137" rx="1" ry="3"/><ellipse fill="#808d7d" cx="148" cy="116" rx="7" ry="1"/><ellipse fill="#705f4c" cx="119" cy="44" rx="4" ry="8"/><ellipse fill="#342b24" cx="143" cy="58" rx="1" ry="15"/><ellipse fill="#e5f9e0" cx="128" cy="24" rx="9" ry="1"/><ellipse fill="#f2fbf9" cx="114" cy="130" rx="3" ry="3"/><ellipse fill="#fff" cx="145" cy="128" rx="4" ry="4"/><ellipse fill="#000303" cx="113" cy="117" rx="1" ry="4"/><ellipse fill="#3c3429" cx="136" cy="65" rx="20" ry="2"/><ellipse fill="#030300" cx="146" cy="12" rx="21" ry="10"/><ellipse fill="#010504" cx="76" cy="155" rx="18" ry="29"/><ellipse cx="143" cy="122" rx="1" ry="1"/><ellipse fill="#72665e" cx="128" cy="32" rx="17" ry="2"/><ellipse cx="137" cy="122" rx="1" ry="4"/><ellipse fill="#fff" cx="136" cy="131" rx="1" ry="7"/><ellipse fill="#6c7476" cx="149" cy="86" rx="6" ry="1"/><ellipse fill="#1f1a11" cx="147" cy="89" rx="3" ry="3"/><ellipse cx="126" cy="106" rx="12" ry="6"/><ellipse fill="#0f1914" cx="141" cy="123" rx="3" ry="1"/><ellipse fill="#645b49" cx="154" cy="117" rx="2" ry="3"/><ellipse fill="#483e32" cx="126" cy="51" rx="2" ry="4"/><ellipse fill="#0e0900" cx="109" cy="80" rx="1" ry="1"/><ellipse fill="#465550" cx="134" cy="121" rx="1" ry="3"/><ellipse fill="#222117" cx="102" cy="80" rx="2" ry="11"/><ellipse fill="#4d4442" cx="138" cy="34" rx="2" ry="4"/><ellipse fill="#fff" cx="140" cy="121" rx="1" ry="4"/><ellipse fill="#3d3e31" cx="100" cy="53" rx="2" ry="12"/><ellipse fill="#3a382f" cx="152" cy="101" rx="2" ry="4"/><ellipse fill="#9dad95" cx="114" cy="103" rx="1" ry="1"/><ellipse fill="#161408" cx="159" cy="44" rx="6" ry="11"/><ellipse fill="#39382f" cx="159" cy="69" rx="1" ry="25"/><ellipse fill="#a6bed1" cx="116" cy="85" rx="4" ry="2"/><ellipse fill="#030401" cx="91" cy="80" rx="11" ry="14"/><ellipse fill="#171710" cx="98" cy="51" rx="2" ry="17"/><ellipse fill="#ecfbd7" cx="129" cy="25" rx="12" ry="1"/><ellipse fill="#fff" cx="137" cy="129" rx="1" ry="2"/><ellipse fill="#8a8359" cx="142" cy="75" rx="5" ry="2"/><ellipse fill="#e3fbff" cx="139" cy="136" rx="2" ry="1"/><ellipse fill="#c6d7e0" cx="111" cy="95" rx="9" ry="1"/><ellipse fill="#060d0c" cx="125" cy="84" rx="4" ry="2"/><ellipse fill="#fff" cx="105" cy="113" rx="2" ry="8"/><ellipse fill="#af9675" cx="114" cy="76" rx="9" ry="2"/><ellipse fill="#594b3e" cx="112" cy="51" rx="7" ry="3"/><ellipse fill="#685951" cx="116" cy="29" rx="1" ry="2"/><ellipse cx="124" cy="156" rx="14" ry="4"/><ellipse fill="#413b36" cx="139" cy="105" rx="2" ry="3"/><ellipse fill="#575653" cx="117" cy="99" rx="4" ry="3"/><ellipse cx="126" cy="93" rx="4" ry="3"/><ellipse fill="#86969c" cx="114" cy="96" rx="7" ry="1"/><ellipse fill="#475953" cx="113" cy="104" rx="1" ry="2"/><ellipse fill="#050d0a" cx="106" cy="129" rx="6" ry="1"/><ellipse fill="azure" cx="117" cy="134" rx="1" ry="3"/><ellipse fill="#799348" cx="106" cy="102" rx="1" ry="1"/><ellipse fill="#030605" cx="176" cy="154" rx="19" ry="11"/><ellipse fill="#a8c2be" cx="137" cy="113" rx="1" ry="3"/><ellipse fill="#c1e2a0" cx="128" cy="23" rx="2" ry="2"/><ellipse fill="#000301" cx="174" cy="114" rx="23" ry="4"/><ellipse fill="#020604" cx="110" cy="147" rx="1" ry="29"/><ellipse fill="#56534d" cx="134" cy="61" rx="2" ry="5"/><ellipse fill="#564c3f" cx="152" cy="49" rx="1" ry="16"/><ellipse fill="#332c22" cx="147" cy="67" rx="9" ry="7"/><ellipse fill="#716551" cx="150" cy="39" rx="3" ry="5"/><ellipse fill="#faffff" cx="136" cy="83" rx="1" ry="2"/><ellipse fill="#e0eaea" cx="110" cy="102" rx="1" ry="16"/><ellipse fill="#695c4f" cx="123" cy="43" rx="13" ry="4"/><ellipse fill="#080c08" cx="98" cy="103" rx="3" ry="5"/><ellipse fill="#070f0b" cx="141" cy="115" rx="1" ry="1"/><ellipse fill="#090d0b" cx="97" cy="137" rx="20" ry="5"/><ellipse fill="#393029" cx="146" cy="40" rx="1" ry="3"/><ellipse fill="#a59b7a" cx="142" cy="40" rx="2" ry="5"/></g></svg>