<svg width="64" height="64" xmlns="http://www.w3.org/2000/svg" style="background-color:#ba9077;">
 <g>
  <title>Layer 1</title>
  <path id="svg_1" fill-rule="evenodd" d="m17.25,5.662c-4.952,1.753 -5.151,2.422 -1.68,5.64c2.468,2.289 2.587,2.917 2.968,15.791c0.591,19.974 -0.174,26.599 -3.16,27.348c-1.503,0.377 -2.378,1.326 -2.378,2.578c0,1.796 0.69,1.981 7.378,1.981c8.634,0 11.404,-1.692 7.764,-4.744c-2.176,-1.824 -4.043,-17.841 -2.608,-22.364c1.184,-3.73 11.308,-1.538 11.634,2.519c1.011,12.618 0.43,18.791 -1.851,19.659c-6.233,2.369 0.096,5.275 10.171,4.67c4.884,-0.294 6.155,-3.165 2.085,-4.712c-2.538,-0.965 -2.573,-1.122 -2.573,-11.438c0,-12.085 -0.805,-14.921 -4.827,-17c-3.059,-1.583 -9.537,-1.208 -11.947,0.691c-2.194,1.729 -2.718,-0.144 -2.887,-10.316c-0.216,-13.082 -0.221,-13.088 -8.089,-10.303" fill="#212726"/>
 </g>
</svg>
